%TF.GenerationSoftware,KiCad,Pcbnew,8.0.4*%
%TF.CreationDate,2024-10-29T04:22:13+09:00*%
%TF.ProjectId,ST-LINK-V2_1,53542d4c-494e-44b2-9d56-325f312e6b69,Rev2*%
%TF.SameCoordinates,Original*%
%TF.FileFunction,Legend,Bot*%
%TF.FilePolarity,Positive*%
%FSLAX46Y46*%
G04 Gerber Fmt 4.6, Leading zero omitted, Abs format (unit mm)*
G04 Created by KiCad (PCBNEW 8.0.4) date 2024-10-29 04:22:13*
%MOMM*%
%LPD*%
G01*
G04 APERTURE LIST*
%ADD10C,0.100000*%
%ADD11R,1.700000X1.700000*%
%ADD12O,1.700000X1.700000*%
%ADD13C,1.500000*%
%ADD14C,0.650000*%
%ADD15O,2.100000X1.000000*%
%ADD16O,1.800000X1.000000*%
G04 APERTURE END LIST*
D10*
X41690475Y-11952300D02*
X41619047Y-11976109D01*
X41619047Y-11976109D02*
X41499999Y-11976109D01*
X41499999Y-11976109D02*
X41452380Y-11952300D01*
X41452380Y-11952300D02*
X41428571Y-11928490D01*
X41428571Y-11928490D02*
X41404761Y-11880871D01*
X41404761Y-11880871D02*
X41404761Y-11833252D01*
X41404761Y-11833252D02*
X41428571Y-11785633D01*
X41428571Y-11785633D02*
X41452380Y-11761823D01*
X41452380Y-11761823D02*
X41499999Y-11738014D01*
X41499999Y-11738014D02*
X41595237Y-11714204D01*
X41595237Y-11714204D02*
X41642856Y-11690395D01*
X41642856Y-11690395D02*
X41666666Y-11666585D01*
X41666666Y-11666585D02*
X41690475Y-11618966D01*
X41690475Y-11618966D02*
X41690475Y-11571347D01*
X41690475Y-11571347D02*
X41666666Y-11523728D01*
X41666666Y-11523728D02*
X41642856Y-11499919D01*
X41642856Y-11499919D02*
X41595237Y-11476109D01*
X41595237Y-11476109D02*
X41476190Y-11476109D01*
X41476190Y-11476109D02*
X41404761Y-11499919D01*
X41238095Y-11476109D02*
X41119047Y-11976109D01*
X41119047Y-11976109D02*
X41023809Y-11618966D01*
X41023809Y-11618966D02*
X40928571Y-11976109D01*
X40928571Y-11976109D02*
X40809524Y-11476109D01*
X40523809Y-11476109D02*
X40428571Y-11476109D01*
X40428571Y-11476109D02*
X40380952Y-11499919D01*
X40380952Y-11499919D02*
X40333333Y-11547538D01*
X40333333Y-11547538D02*
X40309523Y-11642776D01*
X40309523Y-11642776D02*
X40309523Y-11809442D01*
X40309523Y-11809442D02*
X40333333Y-11904680D01*
X40333333Y-11904680D02*
X40380952Y-11952300D01*
X40380952Y-11952300D02*
X40428571Y-11976109D01*
X40428571Y-11976109D02*
X40523809Y-11976109D01*
X40523809Y-11976109D02*
X40571428Y-11952300D01*
X40571428Y-11952300D02*
X40619047Y-11904680D01*
X40619047Y-11904680D02*
X40642856Y-11809442D01*
X40642856Y-11809442D02*
X40642856Y-11642776D01*
X40642856Y-11642776D02*
X40619047Y-11547538D01*
X40619047Y-11547538D02*
X40571428Y-11499919D01*
X40571428Y-11499919D02*
X40523809Y-11476109D01*
X41333333Y-6976109D02*
X41499999Y-6738014D01*
X41619047Y-6976109D02*
X41619047Y-6476109D01*
X41619047Y-6476109D02*
X41428571Y-6476109D01*
X41428571Y-6476109D02*
X41380952Y-6499919D01*
X41380952Y-6499919D02*
X41357142Y-6523728D01*
X41357142Y-6523728D02*
X41333333Y-6571347D01*
X41333333Y-6571347D02*
X41333333Y-6642776D01*
X41333333Y-6642776D02*
X41357142Y-6690395D01*
X41357142Y-6690395D02*
X41380952Y-6714204D01*
X41380952Y-6714204D02*
X41428571Y-6738014D01*
X41428571Y-6738014D02*
X41619047Y-6738014D01*
X41166666Y-6476109D02*
X40833333Y-6976109D01*
X40833333Y-6476109D02*
X41166666Y-6976109D01*
X40642857Y-6976109D02*
X40642857Y-6476109D01*
X40642857Y-6476109D02*
X40523809Y-6476109D01*
X40523809Y-6476109D02*
X40452381Y-6499919D01*
X40452381Y-6499919D02*
X40404762Y-6547538D01*
X40404762Y-6547538D02*
X40380952Y-6595157D01*
X40380952Y-6595157D02*
X40357143Y-6690395D01*
X40357143Y-6690395D02*
X40357143Y-6761823D01*
X40357143Y-6761823D02*
X40380952Y-6857061D01*
X40380952Y-6857061D02*
X40404762Y-6904680D01*
X40404762Y-6904680D02*
X40452381Y-6952300D01*
X40452381Y-6952300D02*
X40523809Y-6976109D01*
X40523809Y-6976109D02*
X40642857Y-6976109D01*
X41666665Y-4226109D02*
X41499999Y-4726109D01*
X41499999Y-4726109D02*
X41333332Y-4226109D01*
X41166666Y-4726109D02*
X41166666Y-4226109D01*
X41166666Y-4226109D02*
X41047618Y-4226109D01*
X41047618Y-4226109D02*
X40976190Y-4249919D01*
X40976190Y-4249919D02*
X40928571Y-4297538D01*
X40928571Y-4297538D02*
X40904761Y-4345157D01*
X40904761Y-4345157D02*
X40880952Y-4440395D01*
X40880952Y-4440395D02*
X40880952Y-4511823D01*
X40880952Y-4511823D02*
X40904761Y-4607061D01*
X40904761Y-4607061D02*
X40928571Y-4654680D01*
X40928571Y-4654680D02*
X40976190Y-4702300D01*
X40976190Y-4702300D02*
X41047618Y-4726109D01*
X41047618Y-4726109D02*
X41166666Y-4726109D01*
X40666666Y-4726109D02*
X40666666Y-4226109D01*
X40666666Y-4226109D02*
X40547618Y-4226109D01*
X40547618Y-4226109D02*
X40476190Y-4249919D01*
X40476190Y-4249919D02*
X40428571Y-4297538D01*
X40428571Y-4297538D02*
X40404761Y-4345157D01*
X40404761Y-4345157D02*
X40380952Y-4440395D01*
X40380952Y-4440395D02*
X40380952Y-4511823D01*
X40380952Y-4511823D02*
X40404761Y-4607061D01*
X40404761Y-4607061D02*
X40428571Y-4654680D01*
X40428571Y-4654680D02*
X40476190Y-4702300D01*
X40476190Y-4702300D02*
X40547618Y-4726109D01*
X40547618Y-4726109D02*
X40666666Y-4726109D01*
X41630951Y-8976109D02*
X41345237Y-8976109D01*
X41488094Y-9476109D02*
X41488094Y-8976109D01*
X41226190Y-8976109D02*
X40892857Y-9476109D01*
X40892857Y-8976109D02*
X41226190Y-9476109D01*
X40702381Y-9476109D02*
X40702381Y-8976109D01*
X40702381Y-8976109D02*
X40583333Y-8976109D01*
X40583333Y-8976109D02*
X40511905Y-8999919D01*
X40511905Y-8999919D02*
X40464286Y-9047538D01*
X40464286Y-9047538D02*
X40440476Y-9095157D01*
X40440476Y-9095157D02*
X40416667Y-9190395D01*
X40416667Y-9190395D02*
X40416667Y-9261823D01*
X40416667Y-9261823D02*
X40440476Y-9357061D01*
X40440476Y-9357061D02*
X40464286Y-9404680D01*
X40464286Y-9404680D02*
X40511905Y-9452300D01*
X40511905Y-9452300D02*
X40583333Y-9476109D01*
X40583333Y-9476109D02*
X40702381Y-9476109D01*
%LPC*%
D11*
%TO.C,J2*%
X43725000Y-4200000D03*
D12*
X46265000Y-4200000D03*
X43725000Y-6740000D03*
X46265000Y-6740000D03*
X43725000Y-9280000D03*
X46265000Y-9280000D03*
X43725000Y-11820000D03*
X46265000Y-11820000D03*
%TD*%
D13*
%TO.C,Y1*%
X35000000Y-10450000D03*
X35000000Y-5570000D03*
%TD*%
D11*
%TO.C,J3*%
X17920000Y-16500000D03*
D12*
X20460000Y-16500000D03*
X23000000Y-16500000D03*
X25540000Y-16500000D03*
X28080000Y-16500000D03*
%TD*%
D14*
%TO.C,J1*%
X3605000Y-5110000D03*
X3605000Y-10890000D03*
D15*
X4105000Y-3680000D03*
D16*
X-75000Y-3680000D03*
D15*
X4105000Y-12320000D03*
D16*
X-75000Y-12320000D03*
%TD*%
%LPD*%
M02*
