%TF.GenerationSoftware,KiCad,Pcbnew,8.0.4*%
%TF.CreationDate,2024-10-29T04:22:13+09:00*%
%TF.ProjectId,ST-LINK-V2_1,53542d4c-494e-44b2-9d56-325f312e6b69,Rev2*%
%TF.SameCoordinates,Original*%
%TF.FileFunction,Copper,L2,Bot*%
%TF.FilePolarity,Positive*%
%FSLAX46Y46*%
G04 Gerber Fmt 4.6, Leading zero omitted, Abs format (unit mm)*
G04 Created by KiCad (PCBNEW 8.0.4) date 2024-10-29 04:22:13*
%MOMM*%
%LPD*%
G01*
G04 APERTURE LIST*
%TA.AperFunction,ComponentPad*%
%ADD10R,1.700000X1.700000*%
%TD*%
%TA.AperFunction,ComponentPad*%
%ADD11O,1.700000X1.700000*%
%TD*%
%TA.AperFunction,ComponentPad*%
%ADD12C,1.500000*%
%TD*%
%TA.AperFunction,ComponentPad*%
%ADD13O,2.100000X1.000000*%
%TD*%
%TA.AperFunction,ComponentPad*%
%ADD14O,1.800000X1.000000*%
%TD*%
%TA.AperFunction,ViaPad*%
%ADD15C,0.600000*%
%TD*%
%TA.AperFunction,Conductor*%
%ADD16C,0.200000*%
%TD*%
G04 APERTURE END LIST*
D10*
%TO.P,J2,1,Pin_1*%
%TO.N,/T_SWCLK*%
X43725000Y-4200000D03*
D11*
%TO.P,J2,2,Pin_2*%
%TO.N,+3.3V*%
X46265000Y-4200000D03*
%TO.P,J2,3,Pin_3*%
%TO.N,/T_SWDIO*%
X43725000Y-6740000D03*
%TO.P,J2,4,Pin_4*%
%TO.N,/T_RXD*%
X46265000Y-6740000D03*
%TO.P,J2,5,Pin_5*%
%TO.N,/T_NRST*%
X43725000Y-9280000D03*
%TO.P,J2,6,Pin_6*%
%TO.N,/T_TXD*%
X46265000Y-9280000D03*
%TO.P,J2,7,Pin_7*%
%TO.N,GND*%
X43725000Y-11820000D03*
%TO.P,J2,8,Pin_8*%
%TO.N,/T_SWO*%
X46265000Y-11820000D03*
%TD*%
D12*
%TO.P,Y1,1,1*%
%TO.N,/OSC_IN*%
X35000000Y-10450000D03*
%TO.P,Y1,2,2*%
%TO.N,/OSC_OUT*%
X35000000Y-5570000D03*
%TD*%
D10*
%TO.P,J3,1,Pin_1*%
%TO.N,/SWDIO*%
X17920000Y-16500000D03*
D11*
%TO.P,J3,2,Pin_2*%
%TO.N,GND*%
X20460000Y-16500000D03*
%TO.P,J3,3,Pin_3*%
%TO.N,/SWCLK*%
X23000000Y-16500000D03*
%TO.P,J3,4,Pin_4*%
%TO.N,/NRST*%
X25540000Y-16500000D03*
%TO.P,J3,5,Pin_5*%
%TO.N,+3.3V*%
X28080000Y-16500000D03*
%TD*%
D13*
%TO.P,J1,S1,SHIELD*%
%TO.N,GND*%
X4105000Y-3680000D03*
D14*
X-75000Y-3680000D03*
D13*
X4105000Y-12320000D03*
D14*
X-75000Y-12320000D03*
%TD*%
D15*
%TO.N,VCC*%
X6170000Y-13510000D03*
X10900000Y-1990000D03*
X10675000Y-5000000D03*
%TO.N,+3.3V*%
X14980000Y-13000000D03*
X11000000Y-14675000D03*
X16500000Y-980000D03*
X26180000Y1150000D03*
X12875000Y-8000000D03*
X18030000Y-1000000D03*
X13200000Y-9000000D03*
X25000000Y325000D03*
X20000000Y-6000000D03*
%TO.N,GND*%
X30000000Y-6000000D03*
X21000000Y-5500000D03*
X14000000Y-8500000D03*
X36500000Y-9250000D03*
X25660000Y-2660000D03*
X9800000Y-3000000D03*
X18000000Y-14000000D03*
X9500000Y-500000D03*
X15000000Y-4000000D03*
X39480000Y-5500000D03*
%TO.N,/NRST*%
X22000000Y-7750000D03*
%TO.N,/T_SWDIO*%
X17510000Y-6250000D03*
%TO.N,/T_SWCLK*%
X16680000Y-5320000D03*
%TO.N,/SWDIO*%
X13370000Y-12000000D03*
%TO.N,/T_RXD*%
X23050000Y-3840000D03*
%TO.N,/T_SWO*%
X16630000Y-8250000D03*
%TO.N,/T_TXD*%
X23660000Y-4620000D03*
%TO.N,/T_NRST*%
X31000000Y-3000000D03*
X19750000Y-2600000D03*
%TO.N,/SWCLK*%
X16000000Y-13083000D03*
%TD*%
D16*
%TO.N,VCC*%
X10675000Y-5000000D02*
X10675000Y-9005000D01*
X10675000Y-9005000D02*
X6170000Y-13510000D01*
X10900000Y-1990000D02*
X10900000Y-4775000D01*
X10900000Y-4775000D02*
X10675000Y-5000000D01*
%TO.N,+3.3V*%
X19710000Y-6000000D02*
X20000000Y-6000000D01*
X13200000Y-11028291D02*
X14980000Y-12808291D01*
X13200000Y-9000000D02*
X11000000Y-11200000D01*
X16520000Y-1000000D02*
X16500000Y-980000D01*
X13200000Y-9000000D02*
X13200000Y-11028291D01*
X18933000Y-6777000D02*
X14098000Y-6777000D01*
X25825000Y1150000D02*
X25000000Y325000D01*
X18030000Y-1000000D02*
X16520000Y-1000000D01*
X14980000Y-12808291D02*
X14980000Y-13000000D01*
X16500000Y-980000D02*
X12875000Y-4605000D01*
X18933000Y-6777000D02*
X19710000Y-6000000D01*
X26180000Y1150000D02*
X25825000Y1150000D01*
X11000000Y-11200000D02*
X11000000Y-14675000D01*
X14098000Y-6777000D02*
X12875000Y-8000000D01*
X12875000Y-4605000D02*
X12875000Y-8000000D01*
%TO.N,GND*%
X25847000Y-2473000D02*
X36453000Y-2473000D01*
X36453000Y-2473000D02*
X39480000Y-5500000D01*
X25660000Y-2660000D02*
X25847000Y-2473000D01*
%TO.N,/NRST*%
X25540000Y-16500000D02*
X25540000Y-11290000D01*
X25540000Y-11290000D02*
X22000000Y-7750000D01*
%TO.N,/T_SWDIO*%
X19531709Y-2073000D02*
X17510000Y-4094709D01*
X39058000Y-2073000D02*
X19531709Y-2073000D01*
X43725000Y-6740000D02*
X39058000Y-2073000D01*
X17510000Y-4094709D02*
X17510000Y-6250000D01*
%TO.N,/T_SWCLK*%
X43725000Y-4200000D02*
X41271000Y-1746000D01*
X19396261Y-1746000D02*
X16680000Y-4462261D01*
X41271000Y-1746000D02*
X19396261Y-1746000D01*
X16680000Y-4462261D02*
X16680000Y-5320000D01*
%TO.N,/SWDIO*%
X13370000Y-12000000D02*
X13370000Y-14670000D01*
X15200000Y-16500000D02*
X17920000Y-16500000D01*
X13370000Y-14670000D02*
X15200000Y-16500000D01*
%TO.N,/T_RXD*%
X29700000Y-13700000D02*
X29662448Y-13700000D01*
X44802000Y-12266109D02*
X43322109Y-13746000D01*
X24181224Y-8218776D02*
X24187000Y-8213000D01*
X29746000Y-13746000D02*
X29700000Y-13700000D01*
X24187000Y-8213000D02*
X24187000Y-4401709D01*
X43322109Y-13746000D02*
X29746000Y-13746000D01*
X29662448Y-13700000D02*
X24181224Y-8218776D01*
X44802000Y-8203000D02*
X44802000Y-12266109D01*
X23625291Y-3840000D02*
X23050000Y-3840000D01*
X24187000Y-4401709D02*
X23625291Y-3840000D01*
X46265000Y-6740000D02*
X44802000Y-8203000D01*
%TO.N,/T_SWO*%
X22218291Y-7223000D02*
X29395291Y-14400000D01*
X16630000Y-8250000D02*
X17657000Y-7223000D01*
X43685000Y-14400000D02*
X46265000Y-11820000D01*
X29395291Y-14400000D02*
X43685000Y-14400000D01*
X17657000Y-7223000D02*
X22218291Y-7223000D01*
%TO.N,/T_TXD*%
X23660000Y-4620000D02*
X23660000Y-8160000D01*
X23660000Y-8160000D02*
X29573000Y-14073000D01*
X45188000Y-12434552D02*
X45188000Y-10357000D01*
X45188000Y-10357000D02*
X46265000Y-9280000D01*
X43549552Y-14073000D02*
X45188000Y-12434552D01*
X29573000Y-14073000D02*
X43549552Y-14073000D01*
%TO.N,/T_NRST*%
X20463000Y-3313000D02*
X30687000Y-3313000D01*
X19750000Y-2600000D02*
X20463000Y-3313000D01*
X30687000Y-3313000D02*
X31000000Y-3000000D01*
%TO.N,/SWCLK*%
X23000000Y-16500000D02*
X19583000Y-13083000D01*
X19583000Y-13083000D02*
X16000000Y-13083000D01*
%TD*%
%TA.AperFunction,Conductor*%
%TO.N,GND*%
G36*
X25671951Y1480593D02*
G01*
X25707915Y1431093D01*
X25707915Y1369907D01*
X25683763Y1330496D01*
X25134761Y781496D01*
X25080245Y753719D01*
X25064758Y752500D01*
X24938533Y752500D01*
X24820582Y717866D01*
X24717167Y651406D01*
X24717167Y651405D01*
X24636667Y558504D01*
X24585598Y446677D01*
X24585597Y446674D01*
X24568104Y325003D01*
X24568104Y324998D01*
X24585597Y203327D01*
X24585598Y203324D01*
X24585598Y203323D01*
X24585599Y203321D01*
X24636666Y91499D01*
X24636667Y91497D01*
X24717167Y-1404D01*
X24717167Y-1405D01*
X24820582Y-67865D01*
X24820584Y-67866D01*
X24938535Y-102500D01*
X24938536Y-102500D01*
X25061464Y-102500D01*
X25061465Y-102500D01*
X25179416Y-67866D01*
X25282832Y-1405D01*
X25363334Y91499D01*
X25414401Y203321D01*
X25414402Y203327D01*
X25431896Y324999D01*
X25431896Y325001D01*
X25425100Y372262D01*
X25435532Y432552D01*
X25453085Y456354D01*
X25793979Y797248D01*
X25848494Y825023D01*
X25908926Y815452D01*
X25917502Y810527D01*
X26000584Y757134D01*
X26118535Y722500D01*
X26118536Y722500D01*
X26241464Y722500D01*
X26241465Y722500D01*
X26359416Y757134D01*
X26462832Y823595D01*
X26543334Y916499D01*
X26594401Y1028321D01*
X26611896Y1150000D01*
X26595266Y1265661D01*
X26594402Y1271674D01*
X26594401Y1271677D01*
X26594401Y1271679D01*
X26554351Y1359376D01*
X26547378Y1420161D01*
X26577465Y1473438D01*
X26633121Y1498855D01*
X26644406Y1499500D01*
X45032767Y1499500D01*
X45090958Y1480593D01*
X45126922Y1431093D01*
X45126922Y1369907D01*
X45090958Y1320407D01*
X45084495Y1316089D01*
X45056343Y1298838D01*
X45056335Y1298832D01*
X44864785Y1135233D01*
X44864767Y1135215D01*
X44701168Y943665D01*
X44701162Y943657D01*
X44569535Y728863D01*
X44569532Y728857D01*
X44473127Y496114D01*
X44414316Y251147D01*
X44394551Y0D01*
X44414316Y-251146D01*
X44473127Y-496113D01*
X44569532Y-728856D01*
X44569535Y-728862D01*
X44701162Y-943656D01*
X44701168Y-943664D01*
X44853204Y-1121676D01*
X44864776Y-1135224D01*
X44864782Y-1135229D01*
X44864785Y-1135232D01*
X45012824Y-1261669D01*
X45056341Y-1298836D01*
X45127941Y-1342712D01*
X45271137Y-1430464D01*
X45271143Y-1430467D01*
X45503887Y-1526872D01*
X45503889Y-1526873D01*
X45748852Y-1585683D01*
X46000000Y-1605449D01*
X46251148Y-1585683D01*
X46496111Y-1526873D01*
X46728859Y-1430466D01*
X46943659Y-1298836D01*
X47135224Y-1135224D01*
X47298836Y-943659D01*
X47316088Y-915505D01*
X47362613Y-875768D01*
X47423610Y-870967D01*
X47475780Y-902936D01*
X47499195Y-959464D01*
X47499500Y-967232D01*
X47499500Y-15032767D01*
X47480593Y-15090958D01*
X47431093Y-15126922D01*
X47369907Y-15126922D01*
X47320407Y-15090958D01*
X47316089Y-15084495D01*
X47309052Y-15073012D01*
X47298836Y-15056341D01*
X47251916Y-15001405D01*
X47135232Y-14864785D01*
X47135229Y-14864782D01*
X47135224Y-14864776D01*
X47135217Y-14864770D01*
X47135214Y-14864767D01*
X46943664Y-14701168D01*
X46943656Y-14701162D01*
X46728862Y-14569535D01*
X46728856Y-14569532D01*
X46496112Y-14473127D01*
X46496113Y-14473127D01*
X46251146Y-14414316D01*
X46000000Y-14394551D01*
X45748853Y-14414316D01*
X45503886Y-14473127D01*
X45271143Y-14569532D01*
X45271137Y-14569535D01*
X45056343Y-14701162D01*
X45056335Y-14701168D01*
X44864785Y-14864767D01*
X44864767Y-14864785D01*
X44701168Y-15056335D01*
X44701162Y-15056343D01*
X44569535Y-15271137D01*
X44569532Y-15271143D01*
X44473127Y-15503886D01*
X44414316Y-15748853D01*
X44394551Y-16000000D01*
X44414316Y-16251146D01*
X44473127Y-16496113D01*
X44569532Y-16728856D01*
X44569535Y-16728862D01*
X44701162Y-16943656D01*
X44701168Y-16943664D01*
X44788313Y-17045698D01*
X44864776Y-17135224D01*
X45056341Y-17298836D01*
X45056343Y-17298837D01*
X45084495Y-17316089D01*
X45124231Y-17362615D01*
X45129032Y-17423611D01*
X45097062Y-17475780D01*
X45040534Y-17499195D01*
X45032767Y-17499500D01*
X28678470Y-17499500D01*
X28620279Y-17480593D01*
X28584315Y-17431093D01*
X28584315Y-17369907D01*
X28620279Y-17320407D01*
X28623461Y-17318190D01*
X28625691Y-17316698D01*
X28625691Y-17316697D01*
X28625698Y-17316694D01*
X28774541Y-17194541D01*
X28896694Y-17045698D01*
X28987462Y-16875883D01*
X29043357Y-16691624D01*
X29052431Y-16599500D01*
X29062230Y-16500003D01*
X29062230Y-16499996D01*
X29043358Y-16308381D01*
X29043357Y-16308378D01*
X29043357Y-16308376D01*
X28987462Y-16124117D01*
X28948058Y-16050397D01*
X28896698Y-15954308D01*
X28896694Y-15954302D01*
X28774545Y-15805463D01*
X28774536Y-15805454D01*
X28625697Y-15683305D01*
X28625691Y-15683301D01*
X28455891Y-15592542D01*
X28455888Y-15592541D01*
X28455883Y-15592538D01*
X28271624Y-15536643D01*
X28271621Y-15536642D01*
X28271618Y-15536641D01*
X28080003Y-15517770D01*
X28079997Y-15517770D01*
X27888381Y-15536641D01*
X27888378Y-15536642D01*
X27704120Y-15592537D01*
X27704117Y-15592538D01*
X27704114Y-15592539D01*
X27704108Y-15592542D01*
X27534308Y-15683301D01*
X27534302Y-15683305D01*
X27385463Y-15805454D01*
X27385454Y-15805463D01*
X27263305Y-15954302D01*
X27263301Y-15954308D01*
X27172542Y-16124108D01*
X27172537Y-16124120D01*
X27116642Y-16308378D01*
X27116641Y-16308381D01*
X27097770Y-16499996D01*
X27097770Y-16500003D01*
X27116641Y-16691618D01*
X27116642Y-16691621D01*
X27116643Y-16691624D01*
X27172538Y-16875883D01*
X27172541Y-16875888D01*
X27172542Y-16875891D01*
X27263301Y-17045691D01*
X27263305Y-17045697D01*
X27385454Y-17194536D01*
X27385463Y-17194545D01*
X27450507Y-17247925D01*
X27534302Y-17316694D01*
X27534305Y-17316695D01*
X27534308Y-17316698D01*
X27536539Y-17318190D01*
X27537297Y-17319152D01*
X27538061Y-17319779D01*
X27537923Y-17319946D01*
X27574414Y-17366243D01*
X27576811Y-17427381D01*
X27542813Y-17478252D01*
X27485407Y-17499424D01*
X27481530Y-17499500D01*
X26138470Y-17499500D01*
X26080279Y-17480593D01*
X26044315Y-17431093D01*
X26044315Y-17369907D01*
X26080279Y-17320407D01*
X26083461Y-17318190D01*
X26085691Y-17316698D01*
X26085691Y-17316697D01*
X26085698Y-17316694D01*
X26234541Y-17194541D01*
X26356694Y-17045698D01*
X26447462Y-16875883D01*
X26503357Y-16691624D01*
X26512431Y-16599500D01*
X26522230Y-16500003D01*
X26522230Y-16499996D01*
X26503358Y-16308381D01*
X26503357Y-16308378D01*
X26503357Y-16308376D01*
X26447462Y-16124117D01*
X26408058Y-16050397D01*
X26356698Y-15954308D01*
X26356694Y-15954302D01*
X26234545Y-15805463D01*
X26234536Y-15805454D01*
X26085697Y-15683305D01*
X26085691Y-15683301D01*
X25915891Y-15592542D01*
X25915879Y-15592536D01*
X25837761Y-15568839D01*
X25787564Y-15533853D01*
X25767519Y-15476044D01*
X25767500Y-15474102D01*
X25767500Y-11332950D01*
X25786407Y-11274759D01*
X25835907Y-11238795D01*
X25897093Y-11238795D01*
X25936502Y-11262945D01*
X29266423Y-14592866D01*
X29266424Y-14592866D01*
X29266425Y-14592867D01*
X29350036Y-14627500D01*
X29350038Y-14627500D01*
X43730252Y-14627500D01*
X43730253Y-14627500D01*
X43813868Y-14592865D01*
X45700451Y-12706281D01*
X45754964Y-12678507D01*
X45815396Y-12688078D01*
X45817058Y-12688945D01*
X45889117Y-12727462D01*
X46073376Y-12783357D01*
X46073378Y-12783357D01*
X46073381Y-12783358D01*
X46264997Y-12802230D01*
X46265000Y-12802230D01*
X46265003Y-12802230D01*
X46456618Y-12783358D01*
X46456619Y-12783357D01*
X46456624Y-12783357D01*
X46640883Y-12727462D01*
X46766021Y-12660573D01*
X46810691Y-12636698D01*
X46810692Y-12636696D01*
X46810698Y-12636694D01*
X46959541Y-12514541D01*
X47081694Y-12365698D01*
X47099312Y-12332738D01*
X47114500Y-12304322D01*
X47172462Y-12195883D01*
X47228357Y-12011624D01*
X47229503Y-11999997D01*
X47247230Y-11820003D01*
X47247230Y-11819996D01*
X47228358Y-11628381D01*
X47228357Y-11628378D01*
X47228357Y-11628376D01*
X47172462Y-11444117D01*
X47124955Y-11355237D01*
X47081698Y-11274308D01*
X47081694Y-11274302D01*
X46959545Y-11125463D01*
X46959536Y-11125454D01*
X46810697Y-11003305D01*
X46810691Y-11003301D01*
X46640891Y-10912542D01*
X46640888Y-10912541D01*
X46640883Y-10912538D01*
X46456624Y-10856643D01*
X46456621Y-10856642D01*
X46456618Y-10856641D01*
X46265003Y-10837770D01*
X46264997Y-10837770D01*
X46073381Y-10856641D01*
X46073378Y-10856642D01*
X45902306Y-10908537D01*
X45889117Y-10912538D01*
X45889114Y-10912539D01*
X45889108Y-10912542D01*
X45719308Y-11003301D01*
X45719302Y-11003305D01*
X45577305Y-11119839D01*
X45520328Y-11142139D01*
X45461125Y-11126690D01*
X45422310Y-11079393D01*
X45415500Y-11043311D01*
X45415500Y-10492239D01*
X45434407Y-10434048D01*
X45444490Y-10422242D01*
X45700448Y-10166283D01*
X45754963Y-10138507D01*
X45815395Y-10148078D01*
X45817118Y-10148978D01*
X45889107Y-10187457D01*
X45889117Y-10187462D01*
X46073376Y-10243357D01*
X46073378Y-10243357D01*
X46073381Y-10243358D01*
X46264997Y-10262230D01*
X46265000Y-10262230D01*
X46265003Y-10262230D01*
X46456618Y-10243358D01*
X46456619Y-10243357D01*
X46456624Y-10243357D01*
X46640883Y-10187462D01*
X46810698Y-10096694D01*
X46959541Y-9974541D01*
X47081694Y-9825698D01*
X47172462Y-9655883D01*
X47228357Y-9471624D01*
X47233834Y-9416022D01*
X47247230Y-9280003D01*
X47247230Y-9279996D01*
X47228358Y-9088381D01*
X47228357Y-9088378D01*
X47228357Y-9088376D01*
X47172462Y-8904117D01*
X47098904Y-8766499D01*
X47081698Y-8734308D01*
X47081694Y-8734302D01*
X46959545Y-8585463D01*
X46959536Y-8585454D01*
X46810697Y-8463305D01*
X46810691Y-8463301D01*
X46640891Y-8372542D01*
X46640888Y-8372541D01*
X46640883Y-8372538D01*
X46456624Y-8316643D01*
X46456621Y-8316642D01*
X46456618Y-8316641D01*
X46265003Y-8297770D01*
X46264997Y-8297770D01*
X46073381Y-8316641D01*
X46073378Y-8316642D01*
X45889120Y-8372537D01*
X45889117Y-8372538D01*
X45889114Y-8372539D01*
X45889108Y-8372542D01*
X45719308Y-8463301D01*
X45719302Y-8463305D01*
X45570463Y-8585454D01*
X45570454Y-8585463D01*
X45448305Y-8734302D01*
X45448301Y-8734308D01*
X45357542Y-8904108D01*
X45357537Y-8904120D01*
X45301642Y-9088378D01*
X45301641Y-9088381D01*
X45282770Y-9279996D01*
X45282770Y-9280003D01*
X45301641Y-9471618D01*
X45301642Y-9471621D01*
X45301643Y-9471624D01*
X45357538Y-9655883D01*
X45390866Y-9718237D01*
X45396021Y-9727880D01*
X45406776Y-9788113D01*
X45380074Y-9843164D01*
X45378714Y-9844551D01*
X45198504Y-10024762D01*
X45143987Y-10052540D01*
X45083555Y-10042969D01*
X45040290Y-9999704D01*
X45029500Y-9954759D01*
X45029500Y-8338240D01*
X45048407Y-8280049D01*
X45058490Y-8268242D01*
X45700449Y-7626282D01*
X45754964Y-7598507D01*
X45815396Y-7608078D01*
X45817035Y-7608934D01*
X45889117Y-7647462D01*
X46073376Y-7703357D01*
X46073378Y-7703357D01*
X46073381Y-7703358D01*
X46264997Y-7722230D01*
X46265000Y-7722230D01*
X46265003Y-7722230D01*
X46456618Y-7703358D01*
X46456619Y-7703357D01*
X46456624Y-7703357D01*
X46640883Y-7647462D01*
X46810698Y-7556694D01*
X46959541Y-7434541D01*
X47081694Y-7285698D01*
X47083798Y-7281763D01*
X47141663Y-7173504D01*
X47172462Y-7115883D01*
X47228357Y-6931624D01*
X47228804Y-6927093D01*
X47247230Y-6740003D01*
X47247230Y-6739996D01*
X47228358Y-6548381D01*
X47228357Y-6548378D01*
X47228357Y-6548376D01*
X47172462Y-6364117D01*
X47133058Y-6290397D01*
X47081698Y-6194308D01*
X47081694Y-6194302D01*
X46959545Y-6045463D01*
X46959536Y-6045454D01*
X46810697Y-5923305D01*
X46810691Y-5923301D01*
X46640891Y-5832542D01*
X46640888Y-5832541D01*
X46640883Y-5832538D01*
X46456624Y-5776643D01*
X46456621Y-5776642D01*
X46456618Y-5776641D01*
X46265003Y-5757770D01*
X46264997Y-5757770D01*
X46073381Y-5776641D01*
X46073378Y-5776642D01*
X45889120Y-5832537D01*
X45889117Y-5832538D01*
X45889114Y-5832539D01*
X45889108Y-5832542D01*
X45719308Y-5923301D01*
X45719302Y-5923305D01*
X45570463Y-6045454D01*
X45570454Y-6045463D01*
X45448305Y-6194302D01*
X45448301Y-6194308D01*
X45357542Y-6364108D01*
X45357537Y-6364120D01*
X45301642Y-6548378D01*
X45301641Y-6548381D01*
X45282770Y-6739996D01*
X45282770Y-6740003D01*
X45301641Y-6931618D01*
X45301642Y-6931621D01*
X45357539Y-7115886D01*
X45357540Y-7115888D01*
X45396020Y-7187879D01*
X45406776Y-7248111D01*
X45380074Y-7303163D01*
X45378714Y-7304550D01*
X44673132Y-8010134D01*
X44609138Y-8074128D01*
X44609136Y-8074130D01*
X44609135Y-8074132D01*
X44589440Y-8121679D01*
X44574500Y-8157747D01*
X44574500Y-8503311D01*
X44555593Y-8561502D01*
X44506093Y-8597466D01*
X44444907Y-8597466D01*
X44412695Y-8579839D01*
X44270697Y-8463305D01*
X44270691Y-8463301D01*
X44100891Y-8372542D01*
X44100888Y-8372541D01*
X44100883Y-8372538D01*
X43916624Y-8316643D01*
X43916621Y-8316642D01*
X43916618Y-8316641D01*
X43725003Y-8297770D01*
X43724997Y-8297770D01*
X43533381Y-8316641D01*
X43533378Y-8316642D01*
X43349120Y-8372537D01*
X43349117Y-8372538D01*
X43349114Y-8372539D01*
X43349108Y-8372542D01*
X43179308Y-8463301D01*
X43179302Y-8463305D01*
X43030463Y-8585454D01*
X43030454Y-8585463D01*
X42908305Y-8734302D01*
X42908301Y-8734308D01*
X42817542Y-8904108D01*
X42817537Y-8904120D01*
X42761642Y-9088378D01*
X42761641Y-9088381D01*
X42742770Y-9279996D01*
X42742770Y-9280003D01*
X42761641Y-9471618D01*
X42761642Y-9471621D01*
X42761643Y-9471624D01*
X42817538Y-9655883D01*
X42817541Y-9655888D01*
X42817542Y-9655891D01*
X42908301Y-9825691D01*
X42908305Y-9825697D01*
X43030454Y-9974536D01*
X43030463Y-9974545D01*
X43179302Y-10096694D01*
X43179308Y-10096698D01*
X43277118Y-10148978D01*
X43349117Y-10187462D01*
X43533376Y-10243357D01*
X43533378Y-10243357D01*
X43533381Y-10243358D01*
X43724997Y-10262230D01*
X43725000Y-10262230D01*
X43725003Y-10262230D01*
X43916618Y-10243358D01*
X43916619Y-10243357D01*
X43916624Y-10243357D01*
X44100883Y-10187462D01*
X44270698Y-10096694D01*
X44388880Y-9999704D01*
X44412695Y-9980160D01*
X44469672Y-9957860D01*
X44528875Y-9973308D01*
X44567690Y-10020605D01*
X44574500Y-10056688D01*
X44574500Y-12130867D01*
X44555593Y-12189058D01*
X44545504Y-12200871D01*
X43256872Y-13489504D01*
X43202355Y-13517281D01*
X43186868Y-13518500D01*
X29875907Y-13518500D01*
X29839314Y-13507389D01*
X29837874Y-13510866D01*
X29828868Y-13507135D01*
X29809369Y-13499058D01*
X29782954Y-13488116D01*
X29750838Y-13466657D01*
X26734181Y-10450000D01*
X34117666Y-10450000D01*
X34122105Y-10492239D01*
X34136948Y-10633453D01*
X34193946Y-10808873D01*
X34193952Y-10808887D01*
X34266221Y-10934058D01*
X34286177Y-10968623D01*
X34409603Y-11105702D01*
X34558833Y-11214124D01*
X34558837Y-11214126D01*
X34558839Y-11214127D01*
X34614245Y-11238795D01*
X34727344Y-11289150D01*
X34907771Y-11327500D01*
X34907774Y-11327500D01*
X35092226Y-11327500D01*
X35092229Y-11327500D01*
X35272656Y-11289150D01*
X35441167Y-11214124D01*
X35590397Y-11105702D01*
X35713823Y-10968623D01*
X35806052Y-10808878D01*
X35863053Y-10633448D01*
X35882334Y-10450000D01*
X35863053Y-10266552D01*
X35806052Y-10091122D01*
X35806049Y-10091117D01*
X35806047Y-10091112D01*
X35738746Y-9974545D01*
X35713823Y-9931377D01*
X35590397Y-9794298D01*
X35441167Y-9685876D01*
X35441163Y-9685874D01*
X35441160Y-9685872D01*
X35272658Y-9610851D01*
X35272653Y-9610849D01*
X35207276Y-9596953D01*
X35092229Y-9572500D01*
X34907771Y-9572500D01*
X34812890Y-9592666D01*
X34727346Y-9610849D01*
X34727341Y-9610851D01*
X34558839Y-9685872D01*
X34558836Y-9685874D01*
X34409601Y-9794299D01*
X34286175Y-9931379D01*
X34286175Y-9931380D01*
X34193952Y-10091112D01*
X34193946Y-10091126D01*
X34136948Y-10266546D01*
X34136947Y-10266550D01*
X34136947Y-10266552D01*
X34117666Y-10450000D01*
X26734181Y-10450000D01*
X24443496Y-8159315D01*
X24415719Y-8104798D01*
X24414500Y-8089311D01*
X24414500Y-5570000D01*
X34117666Y-5570000D01*
X34129805Y-5685500D01*
X34136948Y-5753453D01*
X34193946Y-5928873D01*
X34193952Y-5928887D01*
X34267222Y-6055792D01*
X34286177Y-6088623D01*
X34409603Y-6225702D01*
X34558833Y-6334124D01*
X34558837Y-6334126D01*
X34558839Y-6334127D01*
X34595405Y-6350407D01*
X34727344Y-6409150D01*
X34907771Y-6447500D01*
X34907774Y-6447500D01*
X35092226Y-6447500D01*
X35092229Y-6447500D01*
X35272656Y-6409150D01*
X35441167Y-6334124D01*
X35590397Y-6225702D01*
X35713823Y-6088623D01*
X35806052Y-5928878D01*
X35863053Y-5753448D01*
X35882334Y-5570000D01*
X35863053Y-5386552D01*
X35806052Y-5211122D01*
X35806049Y-5211117D01*
X35806047Y-5211112D01*
X35746201Y-5107457D01*
X35713823Y-5051377D01*
X35590397Y-4914298D01*
X35441167Y-4805876D01*
X35441163Y-4805874D01*
X35441160Y-4805872D01*
X35272658Y-4730851D01*
X35272653Y-4730849D01*
X35207276Y-4716953D01*
X35092229Y-4692500D01*
X34907771Y-4692500D01*
X34812890Y-4712666D01*
X34727346Y-4730849D01*
X34727341Y-4730851D01*
X34558839Y-4805872D01*
X34558836Y-4805874D01*
X34409601Y-4914299D01*
X34286175Y-5051379D01*
X34286175Y-5051380D01*
X34193952Y-5211112D01*
X34193946Y-5211126D01*
X34136948Y-5386546D01*
X34136947Y-5386550D01*
X34136947Y-5386552D01*
X34117666Y-5570000D01*
X24414500Y-5570000D01*
X24414500Y-4356456D01*
X24404947Y-4333394D01*
X24379865Y-4272841D01*
X24354368Y-4247344D01*
X24315868Y-4208843D01*
X24315868Y-4208844D01*
X23816525Y-3709501D01*
X23788750Y-3654987D01*
X23798321Y-3594555D01*
X23841586Y-3551290D01*
X23886531Y-3540500D01*
X30732252Y-3540500D01*
X30732253Y-3540500D01*
X30815868Y-3505865D01*
X30865235Y-3456496D01*
X30919751Y-3428719D01*
X30935239Y-3427500D01*
X31061464Y-3427500D01*
X31061465Y-3427500D01*
X31179416Y-3392866D01*
X31282832Y-3326405D01*
X31363334Y-3233501D01*
X31414401Y-3121679D01*
X31429388Y-3017444D01*
X31431896Y-3000002D01*
X31431896Y-2999997D01*
X31414402Y-2878326D01*
X31414401Y-2878323D01*
X31414401Y-2878321D01*
X31363334Y-2766499D01*
X31363332Y-2766497D01*
X31363332Y-2766496D01*
X31282832Y-2673595D01*
X31282832Y-2673594D01*
X31179417Y-2607134D01*
X31061466Y-2572500D01*
X31061465Y-2572500D01*
X30938535Y-2572500D01*
X30938533Y-2572500D01*
X30820582Y-2607134D01*
X30717167Y-2673594D01*
X30717167Y-2673595D01*
X30636667Y-2766496D01*
X30585598Y-2878323D01*
X30585597Y-2878326D01*
X30568019Y-3000589D01*
X30541023Y-3055497D01*
X30486909Y-3084050D01*
X30470027Y-3085500D01*
X20598241Y-3085500D01*
X20540050Y-3066593D01*
X20528237Y-3056504D01*
X20203088Y-2731355D01*
X20175311Y-2676838D01*
X20175100Y-2647260D01*
X20181896Y-2599999D01*
X20181896Y-2599998D01*
X20164402Y-2478326D01*
X20164401Y-2478323D01*
X20164401Y-2478321D01*
X20147185Y-2440624D01*
X20140212Y-2379839D01*
X20170299Y-2326562D01*
X20225955Y-2301145D01*
X20237240Y-2300500D01*
X38922759Y-2300500D01*
X38980950Y-2319407D01*
X38992763Y-2329496D01*
X42838714Y-6175448D01*
X42866491Y-6229965D01*
X42856920Y-6290397D01*
X42856021Y-6292120D01*
X42817538Y-6364116D01*
X42761642Y-6548378D01*
X42761641Y-6548381D01*
X42742770Y-6739996D01*
X42742770Y-6740003D01*
X42761641Y-6931618D01*
X42761642Y-6931621D01*
X42761643Y-6931624D01*
X42817538Y-7115883D01*
X42817540Y-7115886D01*
X42817542Y-7115891D01*
X42908301Y-7285691D01*
X42908305Y-7285697D01*
X43030454Y-7434536D01*
X43030463Y-7434545D01*
X43179302Y-7556694D01*
X43179308Y-7556698D01*
X43277118Y-7608978D01*
X43349117Y-7647462D01*
X43533376Y-7703357D01*
X43533378Y-7703357D01*
X43533381Y-7703358D01*
X43724997Y-7722230D01*
X43725000Y-7722230D01*
X43725003Y-7722230D01*
X43916618Y-7703358D01*
X43916619Y-7703357D01*
X43916624Y-7703357D01*
X44100883Y-7647462D01*
X44270698Y-7556694D01*
X44419541Y-7434541D01*
X44541694Y-7285698D01*
X44543798Y-7281763D01*
X44601663Y-7173504D01*
X44632462Y-7115883D01*
X44688357Y-6931624D01*
X44688804Y-6927093D01*
X44707230Y-6740003D01*
X44707230Y-6739996D01*
X44688358Y-6548381D01*
X44688357Y-6548378D01*
X44688357Y-6548376D01*
X44632462Y-6364117D01*
X44593058Y-6290397D01*
X44541698Y-6194308D01*
X44541694Y-6194302D01*
X44419545Y-6045463D01*
X44419536Y-6045454D01*
X44270697Y-5923305D01*
X44270691Y-5923301D01*
X44100891Y-5832542D01*
X44100888Y-5832541D01*
X44100883Y-5832538D01*
X43916624Y-5776643D01*
X43916621Y-5776642D01*
X43916618Y-5776641D01*
X43725003Y-5757770D01*
X43724997Y-5757770D01*
X43533381Y-5776641D01*
X43533378Y-5776642D01*
X43349116Y-5832538D01*
X43302590Y-5857406D01*
X43277119Y-5871021D01*
X43216887Y-5881776D01*
X43161836Y-5855074D01*
X43160448Y-5853714D01*
X41315110Y-4008376D01*
X39449236Y-2142503D01*
X39421460Y-2087987D01*
X39431031Y-2027555D01*
X39474296Y-1984290D01*
X39519241Y-1973500D01*
X41135759Y-1973500D01*
X41193950Y-1992407D01*
X41205763Y-2002496D01*
X42718504Y-3515237D01*
X42746281Y-3569754D01*
X42747500Y-3585241D01*
X42747500Y-5062558D01*
X42754898Y-5099748D01*
X42754899Y-5099749D01*
X42754898Y-5099749D01*
X42760052Y-5107462D01*
X42783078Y-5141922D01*
X42825252Y-5170102D01*
X42862442Y-5177500D01*
X42862447Y-5177500D01*
X44587553Y-5177500D01*
X44587558Y-5177500D01*
X44624748Y-5170102D01*
X44666922Y-5141922D01*
X44695102Y-5099748D01*
X44702500Y-5062558D01*
X44702500Y-4199996D01*
X45282770Y-4199996D01*
X45282770Y-4200003D01*
X45301641Y-4391618D01*
X45301642Y-4391621D01*
X45301643Y-4391624D01*
X45357538Y-4575883D01*
X45357541Y-4575888D01*
X45357542Y-4575891D01*
X45448301Y-4745691D01*
X45448305Y-4745697D01*
X45570454Y-4894536D01*
X45570463Y-4894545D01*
X45719302Y-5016694D01*
X45719308Y-5016698D01*
X45849898Y-5086499D01*
X45889117Y-5107462D01*
X46073376Y-5163357D01*
X46073378Y-5163357D01*
X46073381Y-5163358D01*
X46264997Y-5182230D01*
X46265000Y-5182230D01*
X46265003Y-5182230D01*
X46456618Y-5163358D01*
X46456619Y-5163357D01*
X46456624Y-5163357D01*
X46640883Y-5107462D01*
X46810698Y-5016694D01*
X46959541Y-4894541D01*
X47081694Y-4745698D01*
X47083846Y-4741673D01*
X47133123Y-4649481D01*
X47172462Y-4575883D01*
X47228357Y-4391624D01*
X47229940Y-4375557D01*
X47247230Y-4200003D01*
X47247230Y-4199996D01*
X47228358Y-4008381D01*
X47228357Y-4008378D01*
X47228357Y-4008376D01*
X47172462Y-3824117D01*
X47115913Y-3718321D01*
X47081698Y-3654308D01*
X47081694Y-3654302D01*
X46959545Y-3505463D01*
X46959536Y-3505454D01*
X46810697Y-3383305D01*
X46810691Y-3383301D01*
X46640891Y-3292542D01*
X46640888Y-3292541D01*
X46640883Y-3292538D01*
X46456624Y-3236643D01*
X46456621Y-3236642D01*
X46456618Y-3236641D01*
X46265003Y-3217770D01*
X46264997Y-3217770D01*
X46073381Y-3236641D01*
X46073378Y-3236642D01*
X46002708Y-3258080D01*
X45889117Y-3292538D01*
X45889114Y-3292539D01*
X45889108Y-3292542D01*
X45719308Y-3383301D01*
X45719302Y-3383305D01*
X45570463Y-3505454D01*
X45570454Y-3505463D01*
X45448305Y-3654302D01*
X45448301Y-3654308D01*
X45357542Y-3824108D01*
X45357537Y-3824120D01*
X45301642Y-4008378D01*
X45301641Y-4008381D01*
X45282770Y-4199996D01*
X44702500Y-4199996D01*
X44702500Y-3337442D01*
X44695102Y-3300252D01*
X44689950Y-3292542D01*
X44666923Y-3258080D01*
X44666922Y-3258078D01*
X44624748Y-3229898D01*
X44587558Y-3222500D01*
X44587554Y-3222500D01*
X43110241Y-3222500D01*
X43052050Y-3203593D01*
X43040237Y-3193504D01*
X42226572Y-2379839D01*
X41399868Y-1553135D01*
X41316253Y-1518500D01*
X19351008Y-1518500D01*
X19267393Y-1553135D01*
X19267392Y-1553135D01*
X16551132Y-4269396D01*
X16551131Y-4269395D01*
X16487138Y-4333389D01*
X16487136Y-4333391D01*
X16487135Y-4333393D01*
X16452500Y-4417008D01*
X16452500Y-4903977D01*
X16433593Y-4962168D01*
X16407024Y-4987261D01*
X16397170Y-4993593D01*
X16397168Y-4993594D01*
X16397168Y-4993595D01*
X16347098Y-5051379D01*
X16316666Y-5086499D01*
X16265598Y-5198323D01*
X16265597Y-5198326D01*
X16248104Y-5319997D01*
X16248104Y-5320002D01*
X16265597Y-5441673D01*
X16265598Y-5441676D01*
X16265598Y-5441677D01*
X16265599Y-5441679D01*
X16275503Y-5463365D01*
X16316667Y-5553503D01*
X16397167Y-5646404D01*
X16397167Y-5646405D01*
X16458001Y-5685500D01*
X16500584Y-5712866D01*
X16618535Y-5747500D01*
X16618536Y-5747500D01*
X16741464Y-5747500D01*
X16741465Y-5747500D01*
X16859416Y-5712866D01*
X16962832Y-5646405D01*
X17043334Y-5553501D01*
X17093447Y-5443767D01*
X17134818Y-5398691D01*
X17194785Y-5386540D01*
X17250441Y-5411957D01*
X17280528Y-5465234D01*
X17282500Y-5484895D01*
X17282500Y-5833977D01*
X17263593Y-5892168D01*
X17237024Y-5917261D01*
X17227170Y-5923593D01*
X17227168Y-5923594D01*
X17227168Y-5923595D01*
X17160965Y-5999997D01*
X17146666Y-6016499D01*
X17095598Y-6128323D01*
X17095597Y-6128326D01*
X17078104Y-6249997D01*
X17078104Y-6250002D01*
X17095597Y-6371673D01*
X17095598Y-6371676D01*
X17095598Y-6371677D01*
X17095599Y-6371679D01*
X17112711Y-6409150D01*
X17112814Y-6409374D01*
X17119788Y-6470161D01*
X17089701Y-6523438D01*
X17034045Y-6548855D01*
X17022760Y-6549500D01*
X14052747Y-6549500D01*
X13969132Y-6584135D01*
X13969131Y-6584136D01*
X13271504Y-7281763D01*
X13216987Y-7309540D01*
X13156555Y-7299969D01*
X13113290Y-7256704D01*
X13102500Y-7211759D01*
X13102500Y-4740240D01*
X13121407Y-4682049D01*
X13131490Y-4670242D01*
X16365236Y-1436495D01*
X16419753Y-1408719D01*
X16435240Y-1407500D01*
X16561464Y-1407500D01*
X16561465Y-1407500D01*
X16679416Y-1372866D01*
X16782832Y-1306405D01*
X16821597Y-1261667D01*
X16873991Y-1230073D01*
X16896415Y-1227500D01*
X17616254Y-1227500D01*
X17674445Y-1246407D01*
X17691073Y-1261669D01*
X17747167Y-1326404D01*
X17747167Y-1326405D01*
X17819463Y-1372866D01*
X17850584Y-1392866D01*
X17968535Y-1427500D01*
X17968536Y-1427500D01*
X18091464Y-1427500D01*
X18091465Y-1427500D01*
X18209416Y-1392866D01*
X18312832Y-1326405D01*
X18393334Y-1233501D01*
X18444401Y-1121679D01*
X18461896Y-1000000D01*
X18459020Y-980000D01*
X18444402Y-878326D01*
X18444401Y-878323D01*
X18444401Y-878321D01*
X18393334Y-766499D01*
X18393332Y-766497D01*
X18393332Y-766496D01*
X18312832Y-673595D01*
X18312832Y-673594D01*
X18209417Y-607134D01*
X18091466Y-572500D01*
X18091465Y-572500D01*
X17968535Y-572500D01*
X17968533Y-572500D01*
X17850582Y-607134D01*
X17747167Y-673594D01*
X17747167Y-673595D01*
X17691073Y-738331D01*
X17638677Y-769927D01*
X17616254Y-772500D01*
X16931076Y-772500D01*
X16872885Y-753593D01*
X16856257Y-738331D01*
X16782832Y-653595D01*
X16782832Y-653594D01*
X16679417Y-587134D01*
X16561466Y-552500D01*
X16561465Y-552500D01*
X16438535Y-552500D01*
X16438533Y-552500D01*
X16320582Y-587134D01*
X16217167Y-653594D01*
X16217167Y-653595D01*
X16136667Y-746496D01*
X16085598Y-858323D01*
X16085597Y-858326D01*
X16068104Y-979997D01*
X16068104Y-980001D01*
X16074899Y-1027260D01*
X16064466Y-1087550D01*
X16046911Y-1111354D01*
X12746132Y-4412135D01*
X12746131Y-4412134D01*
X12682138Y-4476128D01*
X12682136Y-4476130D01*
X12682135Y-4476132D01*
X12682135Y-4476133D01*
X12647500Y-4559747D01*
X12647500Y-7583977D01*
X12628593Y-7642168D01*
X12602024Y-7667261D01*
X12592170Y-7673593D01*
X12592168Y-7673594D01*
X12592168Y-7673595D01*
X12525965Y-7749997D01*
X12511666Y-7766499D01*
X12460598Y-7878323D01*
X12460597Y-7878326D01*
X12443104Y-7999997D01*
X12443104Y-8000002D01*
X12460597Y-8121673D01*
X12460598Y-8121676D01*
X12460598Y-8121677D01*
X12460599Y-8121679D01*
X12494726Y-8196407D01*
X12511667Y-8233503D01*
X12592167Y-8326404D01*
X12592167Y-8326405D01*
X12695582Y-8392865D01*
X12695584Y-8392866D01*
X12813535Y-8427500D01*
X12813536Y-8427500D01*
X12936464Y-8427500D01*
X12936465Y-8427500D01*
X12936467Y-8427499D01*
X12936469Y-8427499D01*
X12945579Y-8424824D01*
X13006739Y-8426568D01*
X13017677Y-8435002D01*
X13023127Y-8419731D01*
X13049712Y-8398643D01*
X13048460Y-8396694D01*
X13157832Y-8326405D01*
X13238334Y-8233501D01*
X13289401Y-8121679D01*
X13294055Y-8089311D01*
X13306896Y-8000001D01*
X13306896Y-7999999D01*
X13300100Y-7952738D01*
X13310532Y-7892448D01*
X13328089Y-7868643D01*
X14163238Y-7033496D01*
X14217754Y-7005719D01*
X14233241Y-7004500D01*
X17314760Y-7004500D01*
X17372951Y-7023407D01*
X17408915Y-7072907D01*
X17408915Y-7134093D01*
X17384763Y-7173504D01*
X16764761Y-7793504D01*
X16710245Y-7821281D01*
X16694758Y-7822500D01*
X16568533Y-7822500D01*
X16450582Y-7857134D01*
X16347167Y-7923594D01*
X16347167Y-7923595D01*
X16266667Y-8016496D01*
X16215598Y-8128323D01*
X16215597Y-8128326D01*
X16198104Y-8249997D01*
X16198104Y-8250002D01*
X16215597Y-8371673D01*
X16215598Y-8371676D01*
X16215598Y-8371677D01*
X16215599Y-8371679D01*
X16257441Y-8463301D01*
X16266667Y-8483503D01*
X16347167Y-8576404D01*
X16347167Y-8576405D01*
X16450582Y-8642865D01*
X16450584Y-8642866D01*
X16568535Y-8677500D01*
X16568536Y-8677500D01*
X16691464Y-8677500D01*
X16691465Y-8677500D01*
X16809416Y-8642866D01*
X16912832Y-8576405D01*
X16993334Y-8483501D01*
X17044401Y-8371679D01*
X17049209Y-8338240D01*
X17061896Y-8250001D01*
X17061896Y-8249999D01*
X17059492Y-8233281D01*
X17055100Y-8202737D01*
X17065532Y-8142448D01*
X17083089Y-8118643D01*
X17722238Y-7479496D01*
X17776754Y-7451719D01*
X17792241Y-7450500D01*
X21512760Y-7450500D01*
X21570951Y-7469407D01*
X21606915Y-7518907D01*
X21606915Y-7580093D01*
X21602816Y-7590620D01*
X21594844Y-7608078D01*
X21585598Y-7628323D01*
X21585597Y-7628326D01*
X21568104Y-7749997D01*
X21568104Y-7750002D01*
X21585597Y-7871673D01*
X21585598Y-7871676D01*
X21585598Y-7871677D01*
X21585599Y-7871679D01*
X21636666Y-7983501D01*
X21636667Y-7983503D01*
X21717167Y-8076404D01*
X21717167Y-8076405D01*
X21820582Y-8142865D01*
X21820584Y-8142866D01*
X21938535Y-8177500D01*
X21938536Y-8177500D01*
X22064759Y-8177500D01*
X22122950Y-8196407D01*
X22134763Y-8206496D01*
X25283504Y-11355237D01*
X25311281Y-11409754D01*
X25312500Y-11425241D01*
X25312500Y-15474102D01*
X25293593Y-15532293D01*
X25244093Y-15568257D01*
X25242239Y-15568839D01*
X25164120Y-15592536D01*
X25164108Y-15592542D01*
X24994308Y-15683301D01*
X24994302Y-15683305D01*
X24845463Y-15805454D01*
X24845454Y-15805463D01*
X24723305Y-15954302D01*
X24723301Y-15954308D01*
X24632542Y-16124108D01*
X24632537Y-16124120D01*
X24576642Y-16308378D01*
X24576641Y-16308381D01*
X24557770Y-16499996D01*
X24557770Y-16500003D01*
X24576641Y-16691618D01*
X24576642Y-16691621D01*
X24576643Y-16691624D01*
X24632538Y-16875883D01*
X24632541Y-16875888D01*
X24632542Y-16875891D01*
X24723301Y-17045691D01*
X24723305Y-17045697D01*
X24845454Y-17194536D01*
X24845463Y-17194545D01*
X24910507Y-17247925D01*
X24994302Y-17316694D01*
X24994305Y-17316695D01*
X24994308Y-17316698D01*
X24996539Y-17318190D01*
X24997297Y-17319152D01*
X24998061Y-17319779D01*
X24997923Y-17319946D01*
X25034414Y-17366243D01*
X25036811Y-17427381D01*
X25002813Y-17478252D01*
X24945407Y-17499424D01*
X24941530Y-17499500D01*
X23598470Y-17499500D01*
X23540279Y-17480593D01*
X23504315Y-17431093D01*
X23504315Y-17369907D01*
X23540279Y-17320407D01*
X23543461Y-17318190D01*
X23545691Y-17316698D01*
X23545691Y-17316697D01*
X23545698Y-17316694D01*
X23694541Y-17194541D01*
X23816694Y-17045698D01*
X23907462Y-16875883D01*
X23963357Y-16691624D01*
X23972431Y-16599500D01*
X23982230Y-16500003D01*
X23982230Y-16499996D01*
X23963358Y-16308381D01*
X23963357Y-16308378D01*
X23963357Y-16308376D01*
X23907462Y-16124117D01*
X23868058Y-16050397D01*
X23816698Y-15954308D01*
X23816694Y-15954302D01*
X23694545Y-15805463D01*
X23694536Y-15805454D01*
X23545697Y-15683305D01*
X23545691Y-15683301D01*
X23375891Y-15592542D01*
X23375888Y-15592541D01*
X23375883Y-15592538D01*
X23191624Y-15536643D01*
X23191621Y-15536642D01*
X23191618Y-15536641D01*
X23000003Y-15517770D01*
X22999997Y-15517770D01*
X22808381Y-15536641D01*
X22808378Y-15536642D01*
X22624116Y-15592538D01*
X22577590Y-15617406D01*
X22552119Y-15631021D01*
X22491887Y-15641776D01*
X22436836Y-15615074D01*
X22435448Y-15613714D01*
X21823138Y-15001404D01*
X19711868Y-12890135D01*
X19628253Y-12855500D01*
X19628252Y-12855500D01*
X16413746Y-12855500D01*
X16355555Y-12836593D01*
X16338927Y-12821331D01*
X16282832Y-12756595D01*
X16282832Y-12756594D01*
X16179417Y-12690134D01*
X16061466Y-12655500D01*
X16061465Y-12655500D01*
X15938535Y-12655500D01*
X15938533Y-12655500D01*
X15820582Y-12690134D01*
X15717167Y-12756594D01*
X15717167Y-12756595D01*
X15636666Y-12849498D01*
X15589320Y-12953170D01*
X15547948Y-12998247D01*
X15487981Y-13010398D01*
X15432325Y-12984980D01*
X15402239Y-12931703D01*
X15401280Y-12926169D01*
X15394401Y-12878321D01*
X15343334Y-12766499D01*
X15343332Y-12766497D01*
X15343332Y-12766496D01*
X15262832Y-12673595D01*
X15262832Y-12673594D01*
X15159415Y-12607133D01*
X15159413Y-12607132D01*
X15100360Y-12589792D01*
X15058249Y-12564807D01*
X13456496Y-10963054D01*
X13428719Y-10908537D01*
X13427500Y-10893050D01*
X13427500Y-9416022D01*
X13446407Y-9357831D01*
X13472977Y-9332738D01*
X13482832Y-9326405D01*
X13563334Y-9233501D01*
X13614401Y-9121679D01*
X13614402Y-9121673D01*
X13631896Y-9000002D01*
X13631896Y-8999997D01*
X13614402Y-8878326D01*
X13614401Y-8878323D01*
X13614401Y-8878321D01*
X13563334Y-8766499D01*
X13563332Y-8766497D01*
X13563332Y-8766496D01*
X13482832Y-8673595D01*
X13482832Y-8673594D01*
X13379417Y-8607134D01*
X13261466Y-8572500D01*
X13261465Y-8572500D01*
X13138535Y-8572500D01*
X13138532Y-8572500D01*
X13129413Y-8575178D01*
X13068253Y-8573429D01*
X13057321Y-8564998D01*
X13051876Y-8580262D01*
X13025310Y-8601392D01*
X13026540Y-8603306D01*
X12917167Y-8673594D01*
X12917167Y-8673595D01*
X12836667Y-8766496D01*
X12785598Y-8878323D01*
X12785597Y-8878326D01*
X12768104Y-8999997D01*
X12768104Y-9000001D01*
X12774899Y-9047260D01*
X12764466Y-9107550D01*
X12746911Y-9131354D01*
X10871132Y-11007135D01*
X10871131Y-11007134D01*
X10807138Y-11071128D01*
X10807136Y-11071130D01*
X10807135Y-11071132D01*
X10772500Y-11154747D01*
X10772500Y-14258977D01*
X10753593Y-14317168D01*
X10727024Y-14342261D01*
X10717170Y-14348593D01*
X10636666Y-14441499D01*
X10585598Y-14553323D01*
X10585597Y-14553326D01*
X10568104Y-14674997D01*
X10568104Y-14675002D01*
X10585597Y-14796673D01*
X10585598Y-14796676D01*
X10636667Y-14908503D01*
X10717167Y-15001404D01*
X10717167Y-15001405D01*
X10820582Y-15067865D01*
X10820584Y-15067866D01*
X10938535Y-15102500D01*
X10938536Y-15102500D01*
X11061464Y-15102500D01*
X11061465Y-15102500D01*
X11179416Y-15067866D01*
X11282832Y-15001405D01*
X11363334Y-14908501D01*
X11414401Y-14796679D01*
X11414402Y-14796673D01*
X11431896Y-14675002D01*
X11431896Y-14674997D01*
X11414402Y-14553326D01*
X11414401Y-14553323D01*
X11414401Y-14553321D01*
X11363334Y-14441499D01*
X11282832Y-14348595D01*
X11272975Y-14342260D01*
X11234245Y-14294894D01*
X11227500Y-14258977D01*
X11227500Y-11335241D01*
X11246407Y-11277050D01*
X11256496Y-11265237D01*
X12803496Y-9718237D01*
X12858013Y-9690460D01*
X12918445Y-9700031D01*
X12961710Y-9743296D01*
X12972500Y-9788241D01*
X12972500Y-10983038D01*
X12972500Y-11073544D01*
X13007135Y-11157159D01*
X13278630Y-11428654D01*
X13306406Y-11483169D01*
X13296835Y-11543601D01*
X13253570Y-11586866D01*
X13236518Y-11593645D01*
X13190586Y-11607132D01*
X13190584Y-11607133D01*
X13087167Y-11673594D01*
X13087167Y-11673595D01*
X13006667Y-11766496D01*
X12955598Y-11878323D01*
X12955597Y-11878326D01*
X12938104Y-11999997D01*
X12938104Y-12000002D01*
X12955597Y-12121673D01*
X12955598Y-12121676D01*
X12955598Y-12121677D01*
X12955599Y-12121679D01*
X13006666Y-12233501D01*
X13006667Y-12233503D01*
X13068033Y-12304322D01*
X13087168Y-12326405D01*
X13097023Y-12332738D01*
X13135754Y-12380104D01*
X13142500Y-12416022D01*
X13142500Y-14624747D01*
X13142500Y-14715253D01*
X13177135Y-14798868D01*
X15071132Y-16692866D01*
X15071133Y-16692866D01*
X15071134Y-16692867D01*
X15154745Y-16727500D01*
X15154747Y-16727500D01*
X15245253Y-16727500D01*
X16843500Y-16727500D01*
X16901691Y-16746407D01*
X16937655Y-16795907D01*
X16942500Y-16826500D01*
X16942500Y-17362558D01*
X16942511Y-17362615D01*
X16946206Y-17381186D01*
X16939014Y-17441947D01*
X16897482Y-17486877D01*
X16849108Y-17499500D01*
X967233Y-17499500D01*
X909042Y-17480593D01*
X873078Y-17431093D01*
X873078Y-17369907D01*
X909042Y-17320407D01*
X915505Y-17316089D01*
X919906Y-17313391D01*
X943659Y-17298836D01*
X1135224Y-17135224D01*
X1298836Y-16943659D01*
X1430466Y-16728859D01*
X1526873Y-16496111D01*
X1585683Y-16251148D01*
X1605449Y-16000000D01*
X1585683Y-15748852D01*
X1526873Y-15503889D01*
X1515339Y-15476044D01*
X1430467Y-15271143D01*
X1430464Y-15271137D01*
X1316089Y-15084495D01*
X1298836Y-15056341D01*
X1251916Y-15001405D01*
X1135232Y-14864785D01*
X1135229Y-14864782D01*
X1135224Y-14864776D01*
X1135217Y-14864770D01*
X1135214Y-14864767D01*
X943664Y-14701168D01*
X943656Y-14701162D01*
X728862Y-14569535D01*
X728856Y-14569532D01*
X496112Y-14473127D01*
X496113Y-14473127D01*
X251146Y-14414316D01*
X0Y-14394551D01*
X-251147Y-14414316D01*
X-496114Y-14473127D01*
X-728857Y-14569532D01*
X-728863Y-14569535D01*
X-943657Y-14701162D01*
X-943665Y-14701168D01*
X-1135215Y-14864767D01*
X-1135233Y-14864785D01*
X-1298832Y-15056335D01*
X-1298838Y-15056343D01*
X-1316089Y-15084495D01*
X-1362615Y-15124231D01*
X-1423611Y-15129032D01*
X-1475780Y-15097062D01*
X-1499195Y-15040534D01*
X-1499500Y-15032767D01*
X-1499500Y-13509997D01*
X5738104Y-13509997D01*
X5738104Y-13510002D01*
X5755597Y-13631673D01*
X5755598Y-13631676D01*
X5806667Y-13743503D01*
X5887167Y-13836404D01*
X5887167Y-13836405D01*
X5990582Y-13902865D01*
X5990584Y-13902866D01*
X6108535Y-13937500D01*
X6108536Y-13937500D01*
X6231464Y-13937500D01*
X6231465Y-13937500D01*
X6349416Y-13902866D01*
X6452832Y-13836405D01*
X6533334Y-13743501D01*
X6584401Y-13631679D01*
X6600849Y-13517281D01*
X6601896Y-13510001D01*
X6601896Y-13509999D01*
X6595100Y-13462738D01*
X6605532Y-13402448D01*
X6623085Y-13378646D01*
X10867865Y-9133868D01*
X10902500Y-9050253D01*
X10902500Y-8959747D01*
X10902500Y-5416022D01*
X10921407Y-5357831D01*
X10947977Y-5332738D01*
X10957832Y-5326405D01*
X11038334Y-5233501D01*
X11089401Y-5121679D01*
X11094459Y-5086499D01*
X11106896Y-5000002D01*
X11106896Y-4999998D01*
X11100862Y-4958035D01*
X11096885Y-4930375D01*
X11103412Y-4878403D01*
X11127500Y-4820253D01*
X11127500Y-4729747D01*
X11127500Y-2406022D01*
X11146407Y-2347831D01*
X11172977Y-2322738D01*
X11182832Y-2316405D01*
X11263334Y-2223501D01*
X11314401Y-2111679D01*
X11314402Y-2111673D01*
X11331896Y-1990002D01*
X11331896Y-1989997D01*
X11314402Y-1868326D01*
X11314401Y-1868323D01*
X11314401Y-1868321D01*
X11263334Y-1756499D01*
X11263332Y-1756497D01*
X11263332Y-1756496D01*
X11182832Y-1663595D01*
X11182832Y-1663594D01*
X11079417Y-1597134D01*
X10961466Y-1562500D01*
X10961465Y-1562500D01*
X10838535Y-1562500D01*
X10838533Y-1562500D01*
X10720582Y-1597134D01*
X10617167Y-1663594D01*
X10617167Y-1663595D01*
X10536667Y-1756496D01*
X10485598Y-1868323D01*
X10485597Y-1868326D01*
X10468104Y-1989997D01*
X10468104Y-1990002D01*
X10485597Y-2111673D01*
X10485598Y-2111676D01*
X10536667Y-2223503D01*
X10603386Y-2300500D01*
X10617168Y-2316405D01*
X10627023Y-2322738D01*
X10665754Y-2370104D01*
X10672500Y-2406022D01*
X10672500Y-4481075D01*
X10653593Y-4539266D01*
X10604093Y-4575230D01*
X10601392Y-4576065D01*
X10495582Y-4607134D01*
X10392167Y-4673594D01*
X10392167Y-4673595D01*
X10311667Y-4766496D01*
X10260598Y-4878323D01*
X10260597Y-4878326D01*
X10243104Y-4999997D01*
X10243104Y-5000002D01*
X10260597Y-5121673D01*
X10260598Y-5121676D01*
X10260598Y-5121677D01*
X10260599Y-5121679D01*
X10301446Y-5211122D01*
X10311667Y-5233503D01*
X10392166Y-5326403D01*
X10392168Y-5326405D01*
X10402023Y-5332738D01*
X10440754Y-5380104D01*
X10447500Y-5416022D01*
X10447500Y-8869758D01*
X10428593Y-8927949D01*
X10418504Y-8939762D01*
X6304762Y-13053504D01*
X6250245Y-13081281D01*
X6234758Y-13082500D01*
X6108533Y-13082500D01*
X5990582Y-13117134D01*
X5887167Y-13183594D01*
X5887167Y-13183595D01*
X5806667Y-13276496D01*
X5755598Y-13388323D01*
X5755597Y-13388326D01*
X5738104Y-13509997D01*
X-1499500Y-13509997D01*
X-1499500Y-10814234D01*
X3029500Y-10814234D01*
X3029500Y-10965766D01*
X3058379Y-11073544D01*
X3068720Y-11112139D01*
X3144481Y-11243360D01*
X3144483Y-11243362D01*
X3144485Y-11243365D01*
X3251635Y-11350515D01*
X3251637Y-11350516D01*
X3251639Y-11350518D01*
X3382861Y-11426279D01*
X3382859Y-11426279D01*
X3382863Y-11426280D01*
X3382865Y-11426281D01*
X3529234Y-11465500D01*
X3529236Y-11465500D01*
X3680764Y-11465500D01*
X3680766Y-11465500D01*
X3827135Y-11426281D01*
X3827137Y-11426279D01*
X3827139Y-11426279D01*
X3958360Y-11350518D01*
X3958360Y-11350517D01*
X3958365Y-11350515D01*
X4065515Y-11243365D01*
X4082397Y-11214125D01*
X4141279Y-11112139D01*
X4141279Y-11112137D01*
X4141281Y-11112135D01*
X4180500Y-10965766D01*
X4180500Y-10814234D01*
X4141281Y-10667865D01*
X4141279Y-10667862D01*
X4141279Y-10667860D01*
X4065518Y-10536639D01*
X4065516Y-10536637D01*
X4065515Y-10536635D01*
X3958365Y-10429485D01*
X3958362Y-10429483D01*
X3958360Y-10429481D01*
X3827138Y-10353720D01*
X3827140Y-10353720D01*
X3770347Y-10338503D01*
X3680766Y-10314500D01*
X3529234Y-10314500D01*
X3439652Y-10338503D01*
X3382860Y-10353720D01*
X3251639Y-10429481D01*
X3144481Y-10536639D01*
X3068720Y-10667860D01*
X3068719Y-10667865D01*
X3029500Y-10814234D01*
X-1499500Y-10814234D01*
X-1499500Y-5034234D01*
X3029500Y-5034234D01*
X3029500Y-5185766D01*
X3042291Y-5233503D01*
X3068720Y-5332139D01*
X3144481Y-5463360D01*
X3144483Y-5463362D01*
X3144485Y-5463365D01*
X3251635Y-5570515D01*
X3251637Y-5570516D01*
X3251639Y-5570518D01*
X3382861Y-5646279D01*
X3382859Y-5646279D01*
X3382863Y-5646280D01*
X3382865Y-5646281D01*
X3529234Y-5685500D01*
X3529236Y-5685500D01*
X3680764Y-5685500D01*
X3680766Y-5685500D01*
X3827135Y-5646281D01*
X3827137Y-5646279D01*
X3827139Y-5646279D01*
X3958360Y-5570518D01*
X3958360Y-5570517D01*
X3958365Y-5570515D01*
X4065515Y-5463365D01*
X4076829Y-5443769D01*
X4141279Y-5332139D01*
X4141279Y-5332137D01*
X4141281Y-5332135D01*
X4180500Y-5185766D01*
X4180500Y-5034234D01*
X4141281Y-4887865D01*
X4141279Y-4887862D01*
X4141279Y-4887860D01*
X4065518Y-4756639D01*
X4065516Y-4756637D01*
X4065515Y-4756635D01*
X3958365Y-4649485D01*
X3958362Y-4649483D01*
X3958360Y-4649481D01*
X3827138Y-4573720D01*
X3827140Y-4573720D01*
X3762850Y-4556494D01*
X3680766Y-4534500D01*
X3529234Y-4534500D01*
X3447150Y-4556494D01*
X3382860Y-4573720D01*
X3251639Y-4649481D01*
X3144481Y-4756639D01*
X3068720Y-4887860D01*
X3049917Y-4958035D01*
X3029500Y-5034234D01*
X-1499500Y-5034234D01*
X-1499500Y-967232D01*
X-1480593Y-909041D01*
X-1431093Y-873077D01*
X-1369907Y-873077D01*
X-1320407Y-909041D01*
X-1316088Y-915506D01*
X-1298839Y-943655D01*
X-1298832Y-943664D01*
X-1146796Y-1121676D01*
X-1135224Y-1135224D01*
X-1135218Y-1135229D01*
X-1135215Y-1135232D01*
X-987176Y-1261669D01*
X-943659Y-1298836D01*
X-872059Y-1342712D01*
X-728863Y-1430464D01*
X-728857Y-1430467D01*
X-496113Y-1526872D01*
X-496111Y-1526873D01*
X-251148Y-1585683D01*
X0Y-1605449D01*
X251148Y-1585683D01*
X496111Y-1526873D01*
X728859Y-1430466D01*
X943659Y-1298836D01*
X1135224Y-1135224D01*
X1298836Y-943659D01*
X1430466Y-728859D01*
X1526873Y-496111D01*
X1585683Y-251148D01*
X1605449Y0D01*
X1585683Y251148D01*
X1526873Y496111D01*
X1501030Y558501D01*
X1430467Y728857D01*
X1430464Y728863D01*
X1298837Y943657D01*
X1298836Y943659D01*
X1135224Y1135224D01*
X1135217Y1135230D01*
X1135214Y1135233D01*
X943664Y1298832D01*
X943656Y1298838D01*
X915505Y1316089D01*
X875769Y1362615D01*
X870968Y1423611D01*
X902938Y1475780D01*
X959466Y1499195D01*
X967233Y1499500D01*
X25613760Y1499500D01*
X25671951Y1480593D01*
G37*
%TD.AperFunction*%
%TA.AperFunction,Conductor*%
G36*
X13940868Y-12091021D02*
G01*
X13943931Y-12093955D01*
X14568001Y-12718025D01*
X14595778Y-12772542D01*
X14588052Y-12829153D01*
X14565598Y-12878323D01*
X14565597Y-12878326D01*
X14548104Y-12999997D01*
X14548104Y-13000002D01*
X14565597Y-13121673D01*
X14565598Y-13121676D01*
X14565598Y-13121677D01*
X14565599Y-13121679D01*
X14593875Y-13183595D01*
X14616667Y-13233503D01*
X14697167Y-13326404D01*
X14697167Y-13326405D01*
X14800582Y-13392865D01*
X14800584Y-13392866D01*
X14918535Y-13427500D01*
X14918536Y-13427500D01*
X15041464Y-13427500D01*
X15041465Y-13427500D01*
X15159416Y-13392866D01*
X15262832Y-13326405D01*
X15343334Y-13233501D01*
X15390679Y-13129828D01*
X15432050Y-13084752D01*
X15492017Y-13072601D01*
X15547673Y-13098018D01*
X15577760Y-13151295D01*
X15578724Y-13156867D01*
X15585597Y-13204673D01*
X15585598Y-13204676D01*
X15585598Y-13204677D01*
X15585599Y-13204679D01*
X15636666Y-13316501D01*
X15636667Y-13316503D01*
X15717167Y-13409404D01*
X15717167Y-13409405D01*
X15800156Y-13462738D01*
X15820584Y-13475866D01*
X15938535Y-13510500D01*
X15938536Y-13510500D01*
X16061464Y-13510500D01*
X16061465Y-13510500D01*
X16179416Y-13475866D01*
X16282832Y-13409405D01*
X16312364Y-13375323D01*
X16338927Y-13344669D01*
X16391323Y-13313073D01*
X16413746Y-13310500D01*
X19447759Y-13310500D01*
X19505950Y-13329407D01*
X19517763Y-13339496D01*
X22113714Y-15935448D01*
X22141491Y-15989965D01*
X22131920Y-16050397D01*
X22131021Y-16052120D01*
X22092538Y-16124116D01*
X22036642Y-16308378D01*
X22036641Y-16308381D01*
X22017770Y-16499996D01*
X22017770Y-16500003D01*
X22036641Y-16691618D01*
X22036642Y-16691621D01*
X22036643Y-16691624D01*
X22092538Y-16875883D01*
X22092541Y-16875888D01*
X22092542Y-16875891D01*
X22183301Y-17045691D01*
X22183305Y-17045697D01*
X22305454Y-17194536D01*
X22305463Y-17194545D01*
X22370507Y-17247925D01*
X22454302Y-17316694D01*
X22454305Y-17316695D01*
X22454308Y-17316698D01*
X22456539Y-17318190D01*
X22457297Y-17319152D01*
X22458061Y-17319779D01*
X22457923Y-17319946D01*
X22494414Y-17366243D01*
X22496811Y-17427381D01*
X22462813Y-17478252D01*
X22405407Y-17499424D01*
X22401530Y-17499500D01*
X18990892Y-17499500D01*
X18932701Y-17480593D01*
X18896737Y-17431093D01*
X18893794Y-17381186D01*
X18897500Y-17362558D01*
X18897500Y-15637442D01*
X18890102Y-15600252D01*
X18884950Y-15592542D01*
X18861923Y-15558080D01*
X18861922Y-15558078D01*
X18819748Y-15529898D01*
X18782558Y-15522500D01*
X17057442Y-15522500D01*
X17020252Y-15529898D01*
X17020250Y-15529898D01*
X17020250Y-15529899D01*
X16978080Y-15558076D01*
X16978076Y-15558080D01*
X16949899Y-15600250D01*
X16949898Y-15600252D01*
X16942500Y-15637442D01*
X16942500Y-15637446D01*
X16942500Y-16173500D01*
X16923593Y-16231691D01*
X16874093Y-16267655D01*
X16843500Y-16272500D01*
X15335242Y-16272500D01*
X15277051Y-16253593D01*
X15265238Y-16243504D01*
X13626496Y-14604762D01*
X13598719Y-14550245D01*
X13597500Y-14534758D01*
X13597500Y-12416022D01*
X13616407Y-12357831D01*
X13642977Y-12332738D01*
X13652832Y-12326405D01*
X13733334Y-12233501D01*
X13783874Y-12122830D01*
X13825245Y-12077755D01*
X13885212Y-12065604D01*
X13940868Y-12091021D01*
G37*
%TD.AperFunction*%
%TA.AperFunction,Conductor*%
G36*
X19308704Y-2714479D02*
G01*
X19351969Y-2757744D01*
X19353812Y-2761562D01*
X19386666Y-2833501D01*
X19467167Y-2926404D01*
X19467167Y-2926405D01*
X19570582Y-2992865D01*
X19570584Y-2992866D01*
X19688535Y-3027500D01*
X19688536Y-3027500D01*
X19814759Y-3027500D01*
X19872950Y-3046407D01*
X19884763Y-3056496D01*
X20270135Y-3441868D01*
X20270134Y-3441868D01*
X20333721Y-3505454D01*
X20334132Y-3505865D01*
X20417747Y-3540500D01*
X22562760Y-3540500D01*
X22620951Y-3559407D01*
X22656915Y-3608907D01*
X22656915Y-3670093D01*
X22652814Y-3680626D01*
X22635598Y-3718323D01*
X22635597Y-3718326D01*
X22618104Y-3839997D01*
X22618104Y-3840002D01*
X22635597Y-3961673D01*
X22635598Y-3961676D01*
X22635598Y-3961677D01*
X22635599Y-3961679D01*
X22686666Y-4073501D01*
X22686667Y-4073503D01*
X22767167Y-4166404D01*
X22767167Y-4166405D01*
X22866045Y-4229949D01*
X22870584Y-4232866D01*
X22988535Y-4267500D01*
X22988536Y-4267500D01*
X23111464Y-4267500D01*
X23111465Y-4267500D01*
X23180109Y-4247344D01*
X23241268Y-4249091D01*
X23289721Y-4286453D01*
X23306960Y-4345160D01*
X23298054Y-4383460D01*
X23296666Y-4386498D01*
X23296666Y-4386499D01*
X23265135Y-4455541D01*
X23245598Y-4498323D01*
X23245597Y-4498326D01*
X23228104Y-4619997D01*
X23228104Y-4620002D01*
X23245597Y-4741673D01*
X23245598Y-4741676D01*
X23245598Y-4741677D01*
X23245599Y-4741679D01*
X23281482Y-4820253D01*
X23296667Y-4853503D01*
X23371526Y-4939894D01*
X23377168Y-4946405D01*
X23387023Y-4952738D01*
X23425754Y-5000104D01*
X23432500Y-5036022D01*
X23432500Y-7876467D01*
X23413593Y-7934658D01*
X23364093Y-7970622D01*
X23302907Y-7970622D01*
X23263497Y-7946471D01*
X22347162Y-7030138D01*
X22347159Y-7030135D01*
X22263544Y-6995500D01*
X22263543Y-6995500D01*
X19275240Y-6995500D01*
X19217049Y-6976593D01*
X19181085Y-6927093D01*
X19181085Y-6865907D01*
X19205234Y-6826498D01*
X19653550Y-6378182D01*
X19708065Y-6350407D01*
X19768497Y-6359978D01*
X19777057Y-6364893D01*
X19820584Y-6392866D01*
X19938535Y-6427500D01*
X19938536Y-6427500D01*
X20061464Y-6427500D01*
X20061465Y-6427500D01*
X20179416Y-6392866D01*
X20282832Y-6326405D01*
X20363334Y-6233501D01*
X20414401Y-6121679D01*
X20419154Y-6088620D01*
X20431896Y-6000002D01*
X20431896Y-5999997D01*
X20414402Y-5878326D01*
X20414401Y-5878323D01*
X20414401Y-5878321D01*
X20363334Y-5766499D01*
X20363332Y-5766497D01*
X20363332Y-5766496D01*
X20282832Y-5673595D01*
X20282832Y-5673594D01*
X20179417Y-5607134D01*
X20061466Y-5572500D01*
X20061465Y-5572500D01*
X19938535Y-5572500D01*
X19938533Y-5572500D01*
X19820582Y-5607134D01*
X19717167Y-5673594D01*
X19717167Y-5673595D01*
X19632029Y-5771850D01*
X19630607Y-5770617D01*
X19592590Y-5802387D01*
X19581134Y-5807132D01*
X19581132Y-5807133D01*
X19581132Y-5807134D01*
X19212819Y-6175448D01*
X18867763Y-6520504D01*
X18813246Y-6548281D01*
X18797759Y-6549500D01*
X17997240Y-6549500D01*
X17939049Y-6530593D01*
X17903085Y-6481093D01*
X17903085Y-6419907D01*
X17907186Y-6409374D01*
X17924401Y-6371679D01*
X17925488Y-6364117D01*
X17941896Y-6250002D01*
X17941896Y-6249997D01*
X17924402Y-6128326D01*
X17924401Y-6128323D01*
X17924401Y-6128321D01*
X17873334Y-6016499D01*
X17792832Y-5923595D01*
X17782975Y-5917260D01*
X17744245Y-5869894D01*
X17737500Y-5833977D01*
X17737500Y-4229949D01*
X17756407Y-4171758D01*
X17766490Y-4159951D01*
X19193757Y-2732683D01*
X19248272Y-2704908D01*
X19308704Y-2714479D01*
G37*
%TD.AperFunction*%
%TD*%
M02*
