%TF.GenerationSoftware,KiCad,Pcbnew,8.0.4*%
%TF.CreationDate,2024-10-29T04:22:13+09:00*%
%TF.ProjectId,ST-LINK-V2_1,53542d4c-494e-44b2-9d56-325f312e6b69,Rev2*%
%TF.SameCoordinates,Original*%
%TF.FileFunction,Soldermask,Top*%
%TF.FilePolarity,Negative*%
%FSLAX46Y46*%
G04 Gerber Fmt 4.6, Leading zero omitted, Abs format (unit mm)*
G04 Created by KiCad (PCBNEW 8.0.4) date 2024-10-29 04:22:13*
%MOMM*%
%LPD*%
G01*
G04 APERTURE LIST*
G04 Aperture macros list*
%AMRoundRect*
0 Rectangle with rounded corners*
0 $1 Rounding radius*
0 $2 $3 $4 $5 $6 $7 $8 $9 X,Y pos of 4 corners*
0 Add a 4 corners polygon primitive as box body*
4,1,4,$2,$3,$4,$5,$6,$7,$8,$9,$2,$3,0*
0 Add four circle primitives for the rounded corners*
1,1,$1+$1,$2,$3*
1,1,$1+$1,$4,$5*
1,1,$1+$1,$6,$7*
1,1,$1+$1,$8,$9*
0 Add four rect primitives between the rounded corners*
20,1,$1+$1,$2,$3,$4,$5,0*
20,1,$1+$1,$4,$5,$6,$7,0*
20,1,$1+$1,$6,$7,$8,$9,0*
20,1,$1+$1,$8,$9,$2,$3,0*%
G04 Aperture macros list end*
%ADD10RoundRect,0.150000X-0.587500X-0.150000X0.587500X-0.150000X0.587500X0.150000X-0.587500X0.150000X0*%
%ADD11RoundRect,0.218750X0.218750X0.256250X-0.218750X0.256250X-0.218750X-0.256250X0.218750X-0.256250X0*%
%ADD12RoundRect,0.140000X0.140000X0.170000X-0.140000X0.170000X-0.140000X-0.170000X0.140000X-0.170000X0*%
%ADD13RoundRect,0.225000X0.225000X0.250000X-0.225000X0.250000X-0.225000X-0.250000X0.225000X-0.250000X0*%
%ADD14RoundRect,0.200000X-0.200000X-0.275000X0.200000X-0.275000X0.200000X0.275000X-0.200000X0.275000X0*%
%ADD15RoundRect,0.140000X0.170000X-0.140000X0.170000X0.140000X-0.170000X0.140000X-0.170000X-0.140000X0*%
%ADD16R,1.700000X1.700000*%
%ADD17O,1.700000X1.700000*%
%ADD18RoundRect,0.200000X0.200000X0.275000X-0.200000X0.275000X-0.200000X-0.275000X0.200000X-0.275000X0*%
%ADD19RoundRect,0.140000X-0.140000X-0.170000X0.140000X-0.170000X0.140000X0.170000X-0.140000X0.170000X0*%
%ADD20RoundRect,0.200000X-0.275000X0.200000X-0.275000X-0.200000X0.275000X-0.200000X0.275000X0.200000X0*%
%ADD21RoundRect,0.200000X0.275000X-0.200000X0.275000X0.200000X-0.275000X0.200000X-0.275000X-0.200000X0*%
%ADD22C,1.500000*%
%ADD23RoundRect,0.218750X-0.218750X-0.256250X0.218750X-0.256250X0.218750X0.256250X-0.218750X0.256250X0*%
%ADD24RoundRect,0.075000X0.662500X0.075000X-0.662500X0.075000X-0.662500X-0.075000X0.662500X-0.075000X0*%
%ADD25RoundRect,0.075000X0.075000X0.662500X-0.075000X0.662500X-0.075000X-0.662500X0.075000X-0.662500X0*%
%ADD26C,0.650000*%
%ADD27RoundRect,0.150000X-0.425000X0.150000X-0.425000X-0.150000X0.425000X-0.150000X0.425000X0.150000X0*%
%ADD28RoundRect,0.075000X-0.500000X0.075000X-0.500000X-0.075000X0.500000X-0.075000X0.500000X0.075000X0*%
%ADD29O,2.100000X1.000000*%
%ADD30O,1.800000X1.000000*%
%ADD31R,1.050000X0.650000*%
G04 APERTURE END LIST*
D10*
%TO.C,Q1*%
X11000000Y-7050000D03*
X11000000Y-8950000D03*
X12875000Y-8000000D03*
%TD*%
D11*
%TO.C,F1*%
X8787500Y-13500000D03*
X7212500Y-13500000D03*
%TD*%
D12*
%TO.C,C10*%
X14980000Y-13000000D03*
X14020000Y-13000000D03*
%TD*%
D13*
%TO.C,C3*%
X8775000Y-3500000D03*
X7225000Y-3500000D03*
%TD*%
D14*
%TO.C,R7*%
X7175000Y-9500000D03*
X8825000Y-9500000D03*
%TD*%
D15*
%TO.C,C1*%
X23500000Y-980000D03*
X23500000Y-20000D03*
%TD*%
D16*
%TO.C,J2*%
X43725000Y-4200000D03*
D17*
X46265000Y-4200000D03*
X43725000Y-6740000D03*
X46265000Y-6740000D03*
X43725000Y-9280000D03*
X46265000Y-9280000D03*
X43725000Y-11820000D03*
X46265000Y-11820000D03*
%TD*%
D18*
%TO.C,R15*%
X5325000Y-1500000D03*
X3675000Y-1500000D03*
%TD*%
%TO.C,R10*%
X8825000Y-11500000D03*
X7175000Y-11500000D03*
%TD*%
D12*
%TO.C,C5*%
X26980000Y-12000000D03*
X26020000Y-12000000D03*
%TD*%
D19*
%TO.C,C6*%
X26020000Y-4000000D03*
X26980000Y-4000000D03*
%TD*%
D20*
%TO.C,R4*%
X25000000Y325000D03*
X25000000Y-1325000D03*
%TD*%
D21*
%TO.C,R3*%
X15000000Y-1325000D03*
X15000000Y325000D03*
%TD*%
D14*
%TO.C,R9*%
X10675000Y-5000000D03*
X12325000Y-5000000D03*
%TD*%
D15*
%TO.C,C8*%
X16500000Y-980000D03*
X16500000Y-20000D03*
%TD*%
D22*
%TO.C,Y1*%
X35000000Y-10450000D03*
X35000000Y-5570000D03*
%TD*%
D19*
%TO.C,C9*%
X38520000Y-5500000D03*
X39480000Y-5500000D03*
%TD*%
D21*
%TO.C,R13*%
X29000000Y-1325000D03*
X29000000Y325000D03*
%TD*%
D16*
%TO.C,J3*%
X17920000Y-16500000D03*
D17*
X20460000Y-16500000D03*
X23000000Y-16500000D03*
X25540000Y-16500000D03*
X28080000Y-16500000D03*
%TD*%
D18*
%TO.C,R6*%
X8825000Y-7500000D03*
X7175000Y-7500000D03*
%TD*%
D20*
%TO.C,R1*%
X15000000Y-14675000D03*
X15000000Y-16325000D03*
%TD*%
%TO.C,R12*%
X27000000Y325000D03*
X27000000Y-1325000D03*
%TD*%
%TO.C,R16*%
X11000000Y-14675000D03*
X11000000Y-16325000D03*
%TD*%
D14*
%TO.C,R11*%
X10675000Y-13000000D03*
X12325000Y-13000000D03*
%TD*%
D13*
%TO.C,C4*%
X8775000Y-5500000D03*
X7225000Y-5500000D03*
%TD*%
D14*
%TO.C,R8*%
X10675000Y-11000000D03*
X12325000Y-11000000D03*
%TD*%
D23*
%TO.C,D2*%
X7212500Y-1500000D03*
X8787500Y-1500000D03*
%TD*%
D11*
%TO.C,D1*%
X8787500Y500000D03*
X7212500Y500000D03*
%TD*%
D14*
%TO.C,R14*%
X3675000Y500000D03*
X5325000Y500000D03*
%TD*%
D24*
%TO.C,U1*%
X23662500Y-10750000D03*
X23662500Y-10250000D03*
X23662500Y-9750000D03*
X23662500Y-9250000D03*
X23662500Y-8750000D03*
X23662500Y-8250000D03*
X23662500Y-7750000D03*
X23662500Y-7250000D03*
X23662500Y-6750000D03*
X23662500Y-6250000D03*
X23662500Y-5750000D03*
X23662500Y-5250000D03*
D25*
X22250000Y-3837500D03*
X21750000Y-3837500D03*
X21250000Y-3837500D03*
X20750000Y-3837500D03*
X20250000Y-3837500D03*
X19750000Y-3837500D03*
X19250000Y-3837500D03*
X18750000Y-3837500D03*
X18250000Y-3837500D03*
X17750000Y-3837500D03*
X17250000Y-3837500D03*
X16750000Y-3837500D03*
D24*
X15337500Y-5250000D03*
X15337500Y-5750000D03*
X15337500Y-6250000D03*
X15337500Y-6750000D03*
X15337500Y-7250000D03*
X15337500Y-7750000D03*
X15337500Y-8250000D03*
X15337500Y-8750000D03*
X15337500Y-9250000D03*
X15337500Y-9750000D03*
X15337500Y-10250000D03*
X15337500Y-10750000D03*
D25*
X16750000Y-12162500D03*
X17250000Y-12162500D03*
X17750000Y-12162500D03*
X18250000Y-12162500D03*
X18750000Y-12162500D03*
X19250000Y-12162500D03*
X19750000Y-12162500D03*
X20250000Y-12162500D03*
X20750000Y-12162500D03*
X21250000Y-12162500D03*
X21750000Y-12162500D03*
X22250000Y-12162500D03*
%TD*%
D26*
%TO.C,J1*%
X3605000Y-5110000D03*
X3605000Y-10890000D03*
D27*
X4680000Y-4800000D03*
X4680000Y-5600000D03*
D28*
X4680000Y-6750000D03*
X4680000Y-7750000D03*
X4680000Y-8250000D03*
X4680000Y-9250000D03*
D27*
X4680000Y-10400000D03*
X4680000Y-11200000D03*
X4680000Y-11200000D03*
X4680000Y-10400000D03*
D28*
X4680000Y-9750000D03*
X4680000Y-8750000D03*
X4680000Y-7250000D03*
X4680000Y-6250000D03*
D27*
X4680000Y-5600000D03*
X4680000Y-4800000D03*
D29*
X4105000Y-3680000D03*
D30*
X-75000Y-3680000D03*
D29*
X4105000Y-12320000D03*
D30*
X-75000Y-12320000D03*
%TD*%
D19*
%TO.C,C7*%
X38520000Y-10500000D03*
X39480000Y-10500000D03*
%TD*%
D14*
%TO.C,R5*%
X29175000Y-13500000D03*
X30825000Y-13500000D03*
%TD*%
D13*
%TO.C,C2*%
X27275000Y-13500000D03*
X25725000Y-13500000D03*
%TD*%
D31*
%TO.C,IC1*%
X10900000Y-1040000D03*
X10900000Y-2960000D03*
X13100000Y-2000000D03*
%TD*%
D23*
%TO.C,D3*%
X7212500Y-15500000D03*
X8787500Y-15500000D03*
%TD*%
D14*
%TO.C,R2*%
X29175000Y-11500000D03*
X30825000Y-11500000D03*
%TD*%
D21*
%TO.C,R17*%
X13000000Y-16325000D03*
X13000000Y-14675000D03*
%TD*%
M02*
