M48
; DRILL file {KiCad 8.0.4} date 2024-10-29T04:22:13+0900
; FORMAT={-:-/ absolute / inch / decimal}
; #@! TF.CreationDate,2024-10-29T04:22:13+09:00
; #@! TF.GenerationSoftware,Kicad,Pcbnew,8.0.4
; #@! TF.FileFunction,Plated,1,2,PTH
FMAT,2
INCH
; #@! TA.AperFunction,Plated,PTH,ViaDrill
T1C0.0118
; #@! TA.AperFunction,Plated,PTH,ComponentDrill
T2C0.0236
; #@! TA.AperFunction,Plated,PTH,ComponentDrill
T3C0.0315
; #@! TA.AperFunction,Plated,PTH,ComponentDrill
T4C0.0394
%
G90
G05
T1
X0.2429Y-0.5319
X0.374Y-0.0197
X0.3858Y-0.1181
X0.4203Y-0.1969
X0.4291Y-0.0783
X0.4331Y-0.5778
X0.5069Y-0.315
X0.5197Y-0.3543
X0.5264Y-0.4724
X0.5512Y-0.3346
X0.5898Y-0.5118
X0.5906Y-0.1575
X0.6299Y-0.5151
X0.6496Y-0.0386
X0.6547Y-0.3248
X0.6567Y-0.2094
X0.6894Y-0.2461
X0.7087Y-0.5512
X0.7098Y-0.0394
X0.7776Y-0.1024
X0.7874Y-0.2362
X0.8268Y-0.2165
X0.8661Y-0.3051
X0.9075Y-0.1512
X0.9315Y-0.1819
X0.9843Y0.0128
X1.0102Y-0.1047
X1.0307Y0.0453
X1.1811Y-0.2362
X1.2205Y-0.1181
X1.437Y-0.3642
X1.5543Y-0.2165
T3
X1.378Y-0.2193
X1.378Y-0.4114
T4
X0.7055Y-0.6496
X0.8055Y-0.6496
X0.9055Y-0.6496
X1.0055Y-0.6496
X1.1055Y-0.6496
X1.7215Y-0.1654
X1.7215Y-0.2654
X1.7215Y-0.3654
X1.7215Y-0.4654
X1.8215Y-0.1654
X1.8215Y-0.2654
X1.8215Y-0.3654
X1.8215Y-0.4654
T2
G00X0.0128Y-0.1449
M15
G01X-0.0187Y-0.1449
M16
G05
G00X0.0128Y-0.485
M15
G01X-0.0187Y-0.485
M16
G05
G00X0.1833Y-0.1449
M15
G01X0.14Y-0.1449
M16
G05
G00X0.1833Y-0.485
M15
G01X0.14Y-0.485
M16
G05
M30
